<svg width="43" height="38" viewBox="0 0 43 38" fill="none" xmlns="http://www.w3.org/2000/svg">
<g id="Component 12">
<g id="Container">
<g id="Component 1">
<path id="Vector" d="M20.3113 10.2523C20.4943 10.0898 20.7305 10 20.9753 10C21.22 10 21.4563 10.0898 21.6393 10.2523L30.6393 18.2523C30.8274 18.431 30.9387 18.6758 30.9496 18.9351C30.9606 19.1943 30.8703 19.4477 30.6979 19.6416C30.5256 19.8356 30.2845 19.9549 30.0258 19.9744C29.767 19.994 29.5108 19.9121 29.3113 19.7463L28.9753 19.4493V26.9993C28.9753 27.5297 28.7646 28.0384 28.3895 28.4135C28.0144 28.7886 27.5057 28.9993 26.9753 28.9993H14.9753C14.4448 28.9993 13.9361 28.7886 13.5611 28.4135C13.186 28.0384 12.9753 27.5297 12.9753 26.9993V19.4493L12.6393 19.7463C12.4397 19.9121 12.1835 19.994 11.9248 19.9744C11.666 19.9549 11.425 19.8356 11.2526 19.6416C11.0802 19.4477 10.9899 19.1943 11.0009 18.9351C11.0118 18.6758 11.1231 18.431 11.3113 18.2523L20.3113 10.2523ZM14.9753 17.6693V26.9993H17.9753V21.9993C17.9753 21.7341 18.0806 21.4797 18.2682 21.2922C18.4557 21.1046 18.7101 20.9993 18.9753 20.9993H22.9753C23.2405 20.9993 23.4948 21.1046 23.6824 21.2922C23.8699 21.4797 23.9753 21.7341 23.9753 21.9993V26.9993H26.9753V17.6703L20.9753 12.3373L14.9753 17.6693ZM21.9753 26.9993V22.9993H19.9753V26.9993H21.9753Z" fill="white"/>
</g>
</g>
</g>
</svg>
