<svg width="43" height="38" viewBox="0 0 43 38" fill="none" xmlns="http://www.w3.org/2000/svg">
<g id="Component 17">
<g id="Container">
<g id="Component 1">
<path id="Vector" fill-rule="evenodd" clip-rule="evenodd" d="M21 9C26.523 9 31 13.477 31 19C31 24.523 26.523 29 21 29C15.477 29 11 24.523 11 19C11 13.477 15.477 9 21 9ZM22.482 23.94C21.4957 24.0215 20.5043 24.0215 19.518 23.94C19.6113 24.3373 19.7147 24.7047 19.828 25.042C20.079 25.797 20.358 26.335 20.618 26.664C20.745 26.826 20.848 26.912 20.918 26.954L20.969 26.982L20.999 26.99L21.031 26.982L21.082 26.955C21.1982 26.8766 21.2997 26.7784 21.382 26.665C21.642 26.335 21.921 25.797 22.172 25.042C22.2853 24.7047 22.3887 24.3373 22.482 23.94ZM13.807 22.505C14.7155 24.3639 16.3063 25.8004 18.248 26.515C18.1306 26.2394 18.0245 25.9592 17.93 25.675C17.7124 25.0094 17.5387 24.3303 17.41 23.642C16.1724 23.3904 14.9648 23.0093 13.807 22.505ZM28.194 22.505C27.049 23.005 25.843 23.388 24.589 23.642C24.4604 24.3307 24.2867 25.0101 24.069 25.676C23.973 25.9673 23.867 26.2467 23.751 26.514C25.6934 25.7998 27.2851 24.3633 28.194 22.504V22.505ZM22.976 17.871C21.6644 18.0453 20.3356 18.0453 19.024 17.871C18.9669 19.2143 19.014 20.56 19.165 21.896C20.3844 22.035 21.6156 22.035 22.835 21.896C22.946 20.9347 23.0011 19.9677 23 19C23 18.616 22.992 18.2393 22.976 17.87V17.871ZM13.568 16.032C13.08 17.255 12.9014 18.5795 13.048 19.888C14.3221 20.6177 15.6906 21.1685 17.115 21.525C16.9924 20.1776 16.9677 18.823 17.041 17.472C15.8275 17.1396 14.6607 16.6558 13.568 16.032ZM28.432 16.032C27.3393 16.6558 26.1725 17.1396 24.959 17.472C25.0323 18.823 25.0076 20.1776 24.885 21.525C26.309 21.1684 27.6772 20.6176 28.951 19.888C29.0975 18.5798 28.9189 17.2556 28.431 16.033L28.432 16.032ZM21.016 11.012L21.005 11.01L20.985 11.013L20.947 11.028C20.8186 11.1086 20.7066 11.2127 20.617 11.335C20.357 11.665 20.079 12.203 19.827 12.957C19.557 13.765 19.339 14.757 19.194 15.876C20.3921 16.0441 21.6079 16.0441 22.806 15.876C22.661 14.756 22.442 13.765 22.173 12.957C21.921 12.203 21.643 11.664 21.383 11.335C21.3007 11.2216 21.1992 11.1234 21.083 11.045L21.016 11.012ZM18.248 11.486C16.7619 12.0308 15.4707 13.0042 14.538 14.283C15.381 14.767 16.284 15.159 17.233 15.446C17.393 14.282 17.63 13.223 17.93 12.324C18.0267 12.032 18.1327 11.7527 18.248 11.486ZM23.752 11.486C23.8667 11.7527 23.9727 12.032 24.07 12.324C24.37 13.224 24.607 14.282 24.767 15.446C25.7064 15.1613 26.6105 14.7712 27.462 14.283C26.5293 13.0042 25.2381 12.0308 23.752 11.486Z" fill="url(#paint0_linear_298_5185)"/>
</g>
</g>
</g>
<defs>
<linearGradient id="paint0_linear_298_5185" x1="11" y1="29" x2="34.887" y2="16.3256" gradientUnits="userSpaceOnUse">
<stop stop-color="#2600FC"/>
<stop offset="1" stop-color="#FF00EA"/>
</linearGradient>
</defs>
</svg>
