<svg width="39" height="38" viewBox="0 0 39 38" fill="none" xmlns="http://www.w3.org/2000/svg">
  <g id="Container">
    <g id="Component 1">
      <path id="Vector"
        d="M21.8802 12.1868C20.4592 11.3148 16.8072 9.6408 13.5192 10.0688C15.5092 11.4388 16.5552 12.1758 19.3792 14.6888M25.8142 16.1188C26.6862 17.5418 28.3582 21.1928 27.9312 24.4808C26.5612 22.4918 25.8252 21.4448 23.3112 18.6218M17.4732 18.4188L10.4232 25.4688C9.85119 26.0398 9.86019 26.9758 10.4432 27.5588C11.0252 28.1408 11.9612 28.1488 12.5332 27.5778L19.5822 20.5278M18.9862 16.2268L21.7742 19.0138C22.0842 19.3238 22.5842 19.3238 22.8932 19.0168L26.3462 15.5628C26.4195 15.4893 26.4777 15.4021 26.5173 15.3061C26.5569 15.2101 26.5772 15.1072 26.577 15.0034C26.5768 14.8996 26.5561 14.7968 26.5162 14.7009C26.4762 14.6051 26.4178 14.518 26.3442 14.4448L23.5562 11.6568C23.483 11.5831 23.396 11.5246 23.3002 11.4846C23.2044 11.4446 23.1017 11.4238 22.9978 11.4235C22.894 11.4233 22.7911 11.4434 22.6951 11.483C22.5991 11.5225 22.5118 11.5805 22.4382 11.6538L18.9842 15.1078C18.9107 15.1813 18.8524 15.2686 18.8128 15.3647C18.7731 15.4608 18.7527 15.5638 18.7529 15.6677C18.7531 15.7717 18.7738 15.8746 18.8138 15.9705C18.8539 16.0664 18.9124 16.1535 18.9862 16.2268Z"
        stroke="white" stroke-width="1.5" stroke-linecap="round" stroke-linejoin="round" />
    </g>
  </g>
</svg>