<svg width="43" height="38" viewBox="0 0 43 38" fill="none" xmlns="http://www.w3.org/2000/svg">
<g id="Component 21">
<g id="Container">
<g id="Component 1">
<g id="Group 3466070">
<path id="Vector" d="M15.1186 23.8957C13.9267 23.8957 12.6369 23.3754 11.2192 21.9367C11.1498 21.8667 11.0946 21.7831 11.057 21.6908C11.0193 21.5984 10.9999 21.4993 11 21.3991V11.5704C11 11.3705 11.077 11.1787 11.214 11.0373C11.3511 10.8958 11.537 10.8164 11.7308 10.8164C11.9246 10.8164 12.1105 10.8958 12.2475 11.0373C12.3845 11.1787 12.4615 11.3705 12.4615 11.5704V21.0756C14.8987 23.3935 16.4808 22.2956 18.8404 20.6556C21.2388 18.9884 24.1772 16.9457 28.5385 19.1558V11.5704C28.5385 11.3705 28.6155 11.1787 28.7525 11.0373C28.8895 10.8958 29.0754 10.8164 29.2692 10.8164C29.463 10.8164 29.6489 10.8958 29.786 11.0373C29.923 11.1787 30 11.3705 30 11.5704V20.4377C30.0001 20.5722 29.9653 20.7042 29.8993 20.8202C29.8333 20.9362 29.7384 21.0318 29.6245 21.0972C29.5106 21.1626 29.3818 21.1953 29.2515 21.1921C29.1212 21.1888 28.9941 21.1496 28.8834 21.0786C24.7005 18.4025 22.1369 20.1836 19.6567 21.9073C18.2807 22.8634 16.7965 23.8957 15.1186 23.8957Z" fill="url(#paint0_linear_300_5313)"/>
<path id="Vector_2" d="M20.5 14.1396C18.9135 14.1396 11 14.0159 11 11.5698C11 9.12366 18.9135 9 20.5 9C22.0865 9 30 9.12442 30 11.5698C30 14.0151 22.0865 14.1396 20.5 14.1396ZM12.6662 11.5698C13.5087 12.0079 16.187 12.6315 20.5 12.6315C24.813 12.6315 27.4913 12.0079 28.3338 11.5698C27.4913 11.1317 24.813 10.5081 20.5 10.5081C16.1863 10.5081 13.508 11.1317 12.6662 11.5698Z" fill="url(#paint1_linear_300_5313)"/>
<path id="Vector_3" d="M11.7314 21.4116V25.3568C11.7314 26.4004 15.6579 27.2464 20.5007 27.2464C25.3435 27.2464 29.2699 26.4011 29.2699 25.3575V20.448C20.3699 14.7452 17.8962 27.6664 11.7314 21.4116Z" fill="url(#paint2_linear_300_5313)"/>
<path id="Vector_4" d="M20.5 28.0007C18.9135 28.0007 11 27.8733 11 25.357V21.4119C11 21.2633 11.0426 21.1181 11.1223 20.9944C11.2021 20.8707 11.3155 20.774 11.4483 20.7166C11.5811 20.6592 11.7273 20.6435 11.8687 20.6715C12.0101 20.6996 12.1404 20.7701 12.243 20.8743C13.2632 21.9096 14.2081 22.4125 15.1303 22.4125H15.131C16.3339 22.4125 17.4951 21.6042 18.8397 20.6684C20.5015 19.5117 22.3854 18.2012 24.8305 18.2012C26.3893 18.2012 27.967 18.7267 29.6543 19.808C29.76 19.8756 29.8471 19.9699 29.9076 20.0819C29.9681 20.1939 29.9999 20.32 30 20.4482V25.3578C30 27.8733 22.0865 28.0007 20.5 28.0007ZM12.4615 25.2439C12.9314 25.6918 15.693 26.4926 20.5 26.4926C25.307 26.4926 28.0686 25.6918 28.5385 25.2447V20.8758C27.2231 20.0916 26.0071 19.7093 24.8313 19.7093C22.8326 19.7093 21.2183 20.8328 19.6567 21.9194C18.1776 22.9479 16.7804 23.9206 15.1318 23.9206H15.131C14.2278 23.9206 13.3465 23.6212 12.4623 23.0105V25.2439H12.4615Z" fill="url(#paint3_linear_300_5313)"/>
</g>
</g>
</g>
</g>
<defs>
<linearGradient id="paint0_linear_300_5313" x1="11" y1="23.8957" x2="29.243" y2="9.83424" gradientUnits="userSpaceOnUse">
<stop stop-color="#2600FC"/>
<stop offset="1" stop-color="#FF00EA"/>
</linearGradient>
<linearGradient id="paint1_linear_300_5313" x1="11" y1="14.1396" x2="16.9991" y2="2.37208" gradientUnits="userSpaceOnUse">
<stop stop-color="#2600FC"/>
<stop offset="1" stop-color="#FF00EA"/>
</linearGradient>
<linearGradient id="paint2_linear_300_5313" x1="11.7314" y1="27.2464" x2="23.6111" y2="13.9132" gradientUnits="userSpaceOnUse">
<stop stop-color="#2600FC"/>
<stop offset="1" stop-color="#FF00EA"/>
</linearGradient>
<linearGradient id="paint3_linear_300_5313" x1="11" y1="28.0007" x2="25.1285" y2="13.4659" gradientUnits="userSpaceOnUse">
<stop stop-color="#2600FC"/>
<stop offset="1" stop-color="#FF00EA"/>
</linearGradient>
</defs>
</svg>
