<svg width="43" height="38" viewBox="0 0 43 38" fill="none" xmlns="http://www.w3.org/2000/svg">
<g id="Component 22">
<g id="Container">
<g id="Component 1">
<path id="Vector" d="M18.5001 19L16.0001 21.5L18.5001 24L21.0001 21.5L18.5001 19ZM24.5001 9C22.8597 9.00003 21.2799 9.62033 20.0777 10.7365C18.8755 11.8526 18.1398 13.3821 18.0181 15.018C16.777 15.1103 15.5885 15.5569 14.5938 16.3048C13.599 17.0527 12.8399 18.0705 12.4066 19.2371C11.9734 20.4038 11.8841 21.6703 12.1495 22.8862C12.4149 24.1021 13.0238 25.2163 13.9038 26.0963C14.7838 26.9763 15.898 27.5852 17.1139 27.8506C18.3298 28.116 19.5963 28.0267 20.763 27.5935C21.9296 27.1602 22.9474 26.4011 23.6953 25.4064C24.4432 24.4116 24.8898 23.2231 24.9821 21.982C26.6594 21.8569 28.2228 21.0866 29.344 19.8328C30.4651 18.5791 31.0566 16.9396 30.9942 15.2588C30.9318 13.5781 30.2204 11.9869 29.0093 10.8198C27.7983 9.65265 26.182 9.00036 24.5001 9ZM24.8231 19.989C24.543 18.8211 23.9452 17.7534 23.0959 16.9042C22.2467 16.0549 21.179 15.4571 20.0111 15.177C20.0731 14.3168 20.3811 13.4925 20.8982 12.8023C21.4154 12.1121 22.1199 11.5851 22.9281 11.2839C23.7363 10.9828 24.6139 10.9202 25.4566 11.1036C26.2994 11.2871 27.0716 11.7088 27.6814 12.3187C28.2913 12.9285 28.713 13.7008 28.8965 14.5435C29.0799 15.3862 29.0174 16.2639 28.7162 17.072C28.415 17.8802 27.888 18.5848 27.1978 19.1019C26.5076 19.6191 25.6833 19.927 24.8231 19.989ZM23.0001 21.5C23.0001 22.6935 22.526 23.8381 21.6821 24.682C20.8382 25.5259 19.6936 26 18.5001 26C17.3066 26 16.162 25.5259 15.3181 24.682C14.4742 23.8381 14.0001 22.6935 14.0001 21.5C14.0001 20.3065 14.4742 19.1619 15.3181 18.318C16.162 17.4741 17.3066 17 18.5001 17C19.6936 17 20.8382 17.4741 21.6821 18.318C22.526 19.1619 23.0001 20.3065 23.0001 21.5ZM12.5001 13.5C12.5001 12.4391 12.9215 11.4217 13.6717 10.6716C14.4218 9.92143 15.4392 9.5 16.5001 9.5H18.0001V11.5H16.5001C15.9697 11.5 15.461 11.7107 15.0859 12.0858C14.7108 12.4609 14.5001 12.9696 14.5001 13.5V15H12.5001V13.5ZM28.5001 23.5V22H30.5001V23.5C30.5001 24.5609 30.0787 25.5783 29.3285 26.3284C28.5784 27.0786 27.561 27.5 26.5001 27.5H25.0001V25.5H26.5001C27.0305 25.5 27.5393 25.2893 27.9143 24.9142C28.2894 24.5391 28.5001 24.0304 28.5001 23.5Z" fill="url(#paint0_linear_300_5312)"/>
</g>
</g>
</g>
<defs>
<linearGradient id="paint0_linear_300_5312" x1="12" y1="28.0001" x2="34.6918" y2="15.9607" gradientUnits="userSpaceOnUse">
<stop stop-color="#2600FC"/>
<stop offset="1" stop-color="#FF00EA"/>
</linearGradient>
</defs>
</svg>
