<svg width="43" height="38" viewBox="0 0 43 38" fill="none" xmlns="http://www.w3.org/2000/svg">
  <g id="Component 16">
    <g id="Container">
      <g id="Component 1">
        <path id="Vector"
          d="M21 9C26.523 9 31 13.477 31 19C30.9987 19.65 30.9387 20.2833 30.82 20.9C30.434 22.904 28.423 23.75 26.738 23.47L24.998 23.18C24.7955 23.1462 24.5879 23.1613 24.3924 23.2239C24.1969 23.2865 24.0192 23.3949 23.874 23.54C23.504 23.91 23.327 24.419 23.576 24.916C23.999 25.762 24.005 26.728 23.631 27.519C23.131 28.58 22.11 29 21 29C15.477 29 11 24.523 11 19C11 13.477 15.477 9 21 9ZM21 11C18.8783 11 16.8434 11.8429 15.3431 13.3431C13.8429 14.8434 13 16.8783 13 19C13 21.1217 13.8429 23.1566 15.3431 24.6569C16.8434 26.1571 18.8783 27 21 27L21.195 26.998C21.453 26.988 21.695 26.938 21.823 26.666C21.8806 26.5297 21.9073 26.3823 21.9011 26.2345C21.8949 26.0866 21.8559 25.942 21.787 25.811C21.157 24.549 21.485 23.101 22.46 22.126C22.8303 21.7557 23.2836 21.4792 23.7822 21.3193C24.2809 21.1595 24.8105 21.121 25.327 21.207L27.067 21.497C28.024 21.657 28.735 21.149 28.856 20.522C29.0805 19.3638 29.046 18.1703 28.755 17.0269C28.464 15.8836 27.9238 14.8188 27.173 13.9088C26.4222 12.9988 25.4794 12.2661 24.4122 11.7632C23.345 11.2603 22.1798 10.9997 21 11ZM16.5 18C16.697 18 16.892 18.0388 17.074 18.1142C17.256 18.1896 17.4214 18.3001 17.5607 18.4393C17.6999 18.5786 17.8104 18.744 17.8858 18.926C17.9612 19.108 18 19.303 18 19.5C18 19.697 17.9612 19.892 17.8858 20.074C17.8104 20.256 17.6999 20.4214 17.5607 20.5607C17.4214 20.6999 17.256 20.8104 17.074 20.8858C16.892 20.9612 16.697 21 16.5 21C16.1022 21 15.7206 20.842 15.4393 20.5607C15.158 20.2794 15 19.8978 15 19.5C15 19.1022 15.158 18.7206 15.4393 18.4393C15.7206 18.158 16.1022 18 16.5 18ZM23.5 14C23.8978 14 24.2794 14.158 24.5607 14.4393C24.842 14.7206 25 15.1022 25 15.5C25 15.8978 24.842 16.2794 24.5607 16.5607C24.2794 16.842 23.8978 17 23.5 17C23.1022 17 22.7206 16.842 22.4393 16.5607C22.158 16.2794 22 15.8978 22 15.5C22 15.1022 22.158 14.7206 22.4393 14.4393C22.7206 14.158 23.1022 14 23.5 14ZM18.5 14C18.8978 14 19.2794 14.158 19.5607 14.4393C19.842 14.7206 20 15.1022 20 15.5C20 15.8978 19.842 16.2794 19.5607 16.5607C19.2794 16.842 18.8978 17 18.5 17C18.1022 17 17.7206 16.842 17.4393 16.5607C17.158 16.2794 17 15.8978 17 15.5C17 15.1022 17.158 14.7206 17.4393 14.4393C17.7206 14.158 18.1022 14 18.5 14Z"
          fill="currentColor" />
      </g>
    </g>
  </g>
</svg>