<svg width="43" height="38" viewBox="0 0 43 38" fill="none" xmlns="http://www.w3.org/2000/svg">
  <g id="Component 14">
    <g id="Container">
      <g id="Component 1">
        <path id="Vector"
          d="M18.52 10C18.7893 9.99998 19.0559 10.0544 19.3036 10.1599C19.5514 10.2654 19.7754 10.4198 19.962 10.614L20.082 10.751L21.48 12.5H29C29.5046 12.4998 29.9906 12.6904 30.3605 13.0335C30.7305 13.3766 30.9572 13.8468 30.995 14.35L31 14.5V26C31.0002 26.5046 30.8096 26.9906 30.4665 27.3605C30.1234 27.7305 29.6532 27.9572 29.15 27.995L29 28H13C12.4954 28.0002 12.0094 27.8096 11.6395 27.4665C11.2695 27.1234 11.0428 26.6532 11.005 26.15L11 26V12C10.9998 11.4954 11.1904 11.0094 11.5335 10.6395C11.8766 10.2695 12.3468 10.0428 12.85 10.005L13 10H18.52ZM29 18H13V26H29V18ZM18.52 12H13V16H29V14.5H21.48C21.2107 14.5 20.9441 14.4456 20.6964 14.3401C20.4486 14.2346 20.2246 14.0802 20.038 13.886L19.918 13.749L18.52 12Z"
          fill="currentColor" />
      </g>
    </g>
  </g>
</svg>