<svg width="147" height="25" viewBox="0 0 147 25" fill="none" xmlns="http://www.w3.org/2000/svg">
<g id="Vector">
<g id="Vector_2">
<path d="M130.951 25C130.536 25 130.199 24.6633 130.199 24.2479V6.16879C130.199 5.75342 130.536 5.4167 130.951 5.4167H135.435C135.657 5.4167 135.851 5.56368 135.913 5.77693C136.008 6.11153 136.411 6.24716 136.709 6.06781C137.101 5.83192 137.515 5.63495 137.951 5.47689C138.615 5.23615 139.399 5.11577 140.304 5.11577C142.455 5.11577 144.104 5.68754 145.251 6.83107C146.417 7.97461 147 9.83034 147 12.3983C147 14.9461 146.377 16.852 145.13 18.1159C143.903 19.3598 142.204 19.9817 140.032 19.9817C139.429 19.9817 138.826 19.9215 138.222 19.8011C138.079 19.7725 137.94 19.7415 137.807 19.7083C137.271 19.5748 136.684 19.9571 136.684 20.5096V24.2479C136.684 24.6633 136.347 25 135.932 25H130.951ZM138.403 15.3173C139.047 15.3173 139.54 15.1066 139.881 14.6853C140.223 14.244 140.394 13.5017 140.394 12.4585C140.394 11.4353 140.223 10.7331 139.881 10.352C139.56 9.97077 139.077 9.78018 138.434 9.78018C137.885 9.78018 137.391 9.93107 136.952 10.2328C136.774 10.3555 136.684 10.5663 136.684 10.7827V14.3747C136.684 14.6085 136.79 14.8332 136.987 14.9587C137.141 15.0566 137.292 15.136 137.438 15.1969C137.7 15.2772 138.021 15.3173 138.403 15.3173Z" fill="white"/>
<path d="M119.02 19.9817C118.115 19.9817 117.28 19.8212 116.516 19.5002C115.752 19.1792 115.139 18.6777 114.676 17.9956C114.214 17.2934 113.983 16.4006 113.983 15.3173C113.983 13.7725 114.485 12.5889 115.491 11.7663C116.496 10.9237 118.034 10.5024 120.106 10.5024H123.364C123.48 10.5024 123.574 10.4081 123.574 10.2918C123.574 9.89052 123.343 9.5896 122.881 9.38898C122.438 9.16829 121.714 9.05795 120.709 9.05795C119.945 9.05795 119.12 9.12817 118.236 9.2686C117.724 9.33975 117.227 9.43193 116.744 9.54514C116.252 9.66056 115.762 9.29848 115.762 8.79268V6.66885C115.762 6.36602 115.943 6.0902 116.229 5.99006C116.904 5.75334 117.704 5.56222 118.628 5.4167C119.774 5.21608 120.9 5.11577 122.006 5.11577C124.339 5.11577 126.209 5.59726 127.616 6.56024C129.024 7.50315 129.728 8.99777 129.728 11.0441V18.9287C129.728 19.344 129.391 19.6808 128.976 19.6808H124.424C124.208 19.6808 124.02 19.5342 123.968 19.3252C123.884 18.9888 123.471 18.852 123.174 19.0299C122.79 19.2588 122.351 19.4557 121.855 19.6206C121.091 19.8613 120.146 19.9817 119.02 19.9817ZM121.373 16.3404C121.875 16.3404 122.298 16.2602 122.639 16.0997C122.9 15.9697 123.135 15.8188 123.343 15.6471C123.498 15.5201 123.574 15.3254 123.574 15.1256V14.655C123.574 14.2396 123.238 13.9029 122.822 13.9029H121.523C120.458 13.9029 119.925 14.3142 119.925 15.1367C119.925 15.9392 120.407 16.3404 121.373 16.3404Z" fill="white"/>
<path d="M96.599 19.6808C96.2577 19.6808 95.9592 19.4509 95.8719 19.1209L92.4991 6.361C92.373 5.88392 92.7327 5.41672 93.2262 5.41672H97.8712C98.2185 5.41672 98.5206 5.65451 98.6023 5.99206L99.2286 8.58255C99.3933 9.26377 100.367 9.24977 100.512 8.5641L101.052 6.01315C101.125 5.66547 101.432 5.41672 101.787 5.41672H105.308C105.648 5.41672 105.945 5.64397 106.034 5.97141L106.728 8.5225C106.933 9.27672 108.01 9.25632 108.186 8.49487L108.765 5.99905C108.844 5.65811 109.147 5.41672 109.497 5.41672H114.137C114.63 5.41672 114.99 5.88392 114.864 6.361L111.491 19.1209C111.404 19.4509 111.105 19.6808 110.764 19.6808H106.122C105.799 19.6808 105.512 19.475 105.409 19.1694L104.424 16.2534C104.194 15.5715 103.229 15.5715 102.999 16.2534L102.014 19.1694C101.911 19.475 101.624 19.6808 101.302 19.6808H96.599Z" fill="white"/>
<path d="M84.5576 19.9817C83.2103 19.9817 81.9234 19.8714 80.6967 19.6507C79.6901 19.4666 78.8094 19.2196 78.0548 18.9098C77.7862 18.7996 77.6201 18.5328 77.6201 18.2425V14.8435C77.6201 14.2931 78.1938 13.9258 78.7087 14.1201C79.3456 14.3603 80.0183 14.5688 80.7269 14.7456C81.8731 15.0264 82.9188 15.1669 83.8639 15.1669C84.6682 15.1669 85.2816 15.0866 85.7038 14.9261C86.1462 14.7656 86.3674 14.4647 86.3674 14.0233C86.3674 13.5218 86.0356 13.1607 85.372 12.94C84.7085 12.6992 83.7533 12.3682 82.5065 11.9469C81.2196 11.5055 80.2041 11.0341 79.46 10.5325C78.7361 10.0109 78.2133 9.38901 77.8915 8.66677C77.5698 7.92448 77.4089 7.02169 77.4089 5.95841C77.4089 1.98614 80.1739 0 85.7038 0C86.3876 0 87.1115 0.0501551 87.8756 0.150465C88.6599 0.230713 89.4039 0.341054 90.1077 0.481489C90.5951 0.562537 91.0324 0.652681 91.4196 0.75192C91.7366 0.833177 91.9477 1.12492 91.9477 1.45217V4.88666C91.9477 5.4163 91.4145 5.77993 90.9112 5.61497C90.2772 5.40717 89.6776 5.25082 89.1123 5.1459C88.2677 4.96534 87.4935 4.87506 86.7897 4.87506C86.0859 4.87506 85.4424 4.93525 84.8593 5.05562C84.2962 5.15593 84.0147 5.4368 84.0147 5.89822C84.0147 6.2794 84.2661 6.5703 84.7688 6.77092C85.2715 6.95148 86.1161 7.20225 87.3025 7.52324C88.8911 7.96461 90.0876 8.48622 90.8919 9.08807C91.7164 9.68993 92.2694 10.4021 92.5509 11.2247C92.8526 12.0272 93.0034 12.95 93.0034 13.9932C93.0034 15.7988 92.2996 17.2533 90.8919 18.3567C89.4843 19.4401 87.3729 19.9817 84.5576 19.9817Z" fill="white"/>
<path d="M63.361 24.7773C62.5096 24.7773 61.8033 24.729 61.2421 24.6325C60.838 24.5769 60.4339 24.4812 60.0298 24.3455C59.7412 24.2486 59.5587 23.9705 59.5587 23.666V20.9613C59.5587 20.542 59.9853 20.2587 60.4004 20.3178C60.6907 20.3565 60.9906 20.3758 61.3002 20.3758C61.9774 20.3758 62.4999 20.2985 62.8675 20.1441C63.1397 20.0491 63.3928 19.8824 63.6267 19.6441C63.8187 19.4485 63.8404 19.1501 63.7243 18.9018L58.1725 7.02556C57.9394 6.5269 58.3034 5.95498 58.8538 5.95498H63.6824C63.9955 5.95498 64.2758 6.14891 64.3862 6.44185L66.2995 11.5191C66.5459 12.173 67.4731 12.1666 67.7106 11.5094L69.5381 6.45151C69.6457 6.15353 69.9286 5.95498 70.2454 5.95498H75.1078C75.64 5.95498 76.0038 6.49261 75.806 6.98666L71.3139 18.204C70.5011 20.231 69.4756 21.8333 68.2372 23.0109C66.9988 24.1885 65.3734 24.7773 63.361 24.7773Z" fill="white"/>
<path d="M43.6859 24.7716C43.2705 24.7716 42.9338 24.4349 42.9338 24.0195V6.71489C42.9338 6.29952 43.2705 5.9628 43.6859 5.9628H47.9719C48.1854 5.9628 48.373 6.10423 48.4317 6.30943C48.5239 6.63141 48.9111 6.76192 49.1981 6.58934C49.5756 6.36236 49.974 6.17281 50.3932 6.02072C51.0318 5.78906 51.7865 5.67323 52.6572 5.67323C54.7277 5.67323 56.3144 6.22342 57.4173 7.3238C58.5396 8.42418 59.1008 10.2099 59.1008 12.6809C59.1008 15.1326 58.5009 16.9666 57.3012 18.1828C56.1209 19.3797 54.4858 19.9782 52.396 19.9782C51.8155 19.9782 51.235 19.9203 50.6545 19.8044C50.5318 19.7799 50.4129 19.7537 50.298 19.7258C49.7612 19.5953 49.1742 19.9786 49.1742 20.5311V24.0195C49.1742 24.4349 48.8375 24.7716 48.4221 24.7716H43.6859ZM50.8286 15.4898C51.4478 15.4898 51.9219 15.2871 52.2509 14.8817C52.5798 14.457 52.7443 13.7427 52.7443 12.7388C52.7443 11.7543 52.5798 11.0786 52.2509 10.7118C51.9413 10.345 51.4769 10.1616 50.8577 10.1616C50.3341 10.1616 49.8625 10.3044 49.443 10.5899C49.2641 10.7117 49.1742 10.9228 49.1742 11.1392V14.5687C49.1742 14.8025 49.2801 15.0275 49.4779 15.1522C49.6219 15.243 49.7626 15.3169 49.8998 15.374C50.1514 15.4512 50.461 15.4898 50.8286 15.4898Z" fill="white"/>
<path d="M27.0476 24.7716C26.6322 24.7716 26.2955 24.4349 26.2955 24.0195V6.71489C26.2955 6.29952 26.6322 5.9628 27.0476 5.9628H31.3336C31.547 5.9628 31.7347 6.10423 31.7934 6.30943C31.8856 6.63141 32.2727 6.76192 32.5598 6.58934C32.9373 6.36236 33.3357 6.17281 33.7549 6.02072C34.3935 5.78906 35.1481 5.67323 36.0189 5.67323C38.0894 5.67323 39.6761 6.22342 40.779 7.3238C41.9013 8.42418 42.4625 10.2099 42.4625 12.6809C42.4625 15.1326 41.8626 16.9666 40.6629 18.1828C39.4826 19.3797 37.8475 19.9782 35.7577 19.9782C35.1772 19.9782 34.5967 19.9203 34.0162 19.8044C33.8935 19.7799 33.7746 19.7537 33.6597 19.7258C33.1229 19.5953 32.5359 19.9786 32.5359 20.5311V24.0195C32.5359 24.4349 32.1992 24.7716 31.7838 24.7716H27.0476ZM34.1903 15.4898C34.8095 15.4898 35.2836 15.2871 35.6125 14.8817C35.9415 14.457 36.106 13.7427 36.106 12.7388C36.106 11.7543 35.9415 11.0786 35.6125 10.7118C35.3029 10.345 34.8385 10.1616 34.2193 10.1616C33.6957 10.1616 33.2242 10.3044 32.8047 10.5899C32.6258 10.7117 32.5359 10.9228 32.5359 11.1392V14.5687C32.5359 14.8025 32.6418 15.0275 32.8396 15.1522C32.9836 15.243 33.1243 15.3169 33.2615 15.374C33.5131 15.4512 33.8227 15.4898 34.1903 15.4898Z" fill="white"/>
<path d="M20.1475 19.7018C19.7321 19.7018 19.3954 19.3651 19.3954 18.9497V11.2454C19.3954 10.8301 19.0587 10.4934 18.6433 10.4934H18.2948C17.8452 10.4934 17.496 10.1015 17.5477 9.65487L17.8962 6.64169C17.94 6.26228 18.2613 5.97601 18.6433 5.97601H24.8837C25.2991 5.97601 25.6358 6.31273 25.6358 6.72809V18.9497C25.6358 19.3651 25.2991 19.7018 24.8837 19.7018H20.1475Z" fill="white"/>
<path d="M18.9311 0.878687V3.74708C18.9311 4.16245 19.2679 4.49917 19.6832 4.49917H24.8839C25.2992 4.49917 25.6359 4.16245 25.6359 3.74708V0.878687C25.6359 0.463322 25.2992 0.126602 24.8839 0.126602H19.6832C19.2679 0.126602 18.9311 0.463322 18.9311 0.878687Z" fill="white"/>
<path d="M0.752085 19.7153C0.33672 19.7153 0 19.3785 0 18.9632V1.81879C0 1.40343 0.33672 1.06671 0.752085 1.06671H10.0717C11.6391 1.06671 12.9259 1.38524 13.9321 2.0223C14.9576 2.65936 15.7219 3.51843 16.225 4.59951C16.7281 5.66128 16.9797 6.83888 16.9797 8.13231C16.9797 9.46435 16.6894 10.6613 16.1089 11.723C15.5284 12.7848 14.7157 13.6246 13.6708 14.2423C12.6259 14.8408 11.3875 15.14 9.95562 15.14H6.99249C6.57712 15.14 6.2404 15.4767 6.2404 15.8921V18.9632C6.2404 19.3785 5.90368 19.7153 5.48832 19.7153H0.752085ZM6.2404 9.55203C6.2404 9.96739 6.57712 10.3041 6.99249 10.3041H8.50436C9.20096 10.3041 9.72342 10.1111 10.0717 9.72496C10.4394 9.31956 10.6232 8.78868 10.6232 8.13231C10.6232 7.43733 10.4587 6.89679 10.1298 6.51069C9.80082 6.10529 9.29772 5.90259 8.62046 5.90259H6.99249C6.57712 5.90259 6.2404 6.23931 6.2404 6.65467V9.55203Z" fill="white"/>
</g>
</g>
</svg>
