<svg width="160" height="25" viewBox="0 0 160 25" fill="none" xmlns="http://www.w3.org/2000/svg">
  <g id="Component 8">
    <g id="Component 1">
      <g id="Component 14">
        <path id="Vector"
          d="M145.359 23.9607C145.072 23.9607 144.839 23.7338 144.839 23.4538V11.34C144.839 11.06 145.072 10.833 145.359 10.833H148.629C148.789 10.833 148.931 10.937 148.975 11.0877C149.044 11.3244 149.336 11.4203 149.552 11.2933C149.836 11.1266 150.135 10.9874 150.45 10.8756C150.931 10.7053 151.498 10.6201 152.153 10.6201C153.711 10.6201 154.904 11.0247 155.734 11.8338C156.578 12.643 157 13.956 157 15.773C157 17.5759 156.549 18.9244 155.647 19.8187C154.759 20.6988 153.529 21.1389 151.957 21.1389C151.52 21.1389 151.084 21.0963 150.647 21.0111C150.529 20.9882 150.417 20.9633 150.309 20.9363C149.939 20.8437 149.533 21.1008 149.533 21.4734V23.4538C149.533 23.7338 149.301 23.9607 149.014 23.9607H145.359ZM150.778 17.8385C151.244 17.8385 151.6 17.6894 151.848 17.3913C152.095 17.079 152.219 16.5538 152.219 15.8156C152.219 15.0917 152.095 14.5948 151.848 14.3251C151.615 14.0554 151.265 13.9205 150.8 13.9205C150.399 13.9205 150.038 14.0295 149.718 14.2473C149.596 14.3307 149.533 14.4725 149.533 14.6182V17.1843C149.533 17.3417 149.607 17.4928 149.742 17.5781C149.857 17.6504 149.97 17.7088 150.079 17.7533C150.268 17.8101 150.501 17.8385 150.778 17.8385Z"
          fill="#1E1E1E" />
        <path id="Vector_2"
          d="M136.179 21.1389C135.524 21.1389 134.92 21.0253 134.367 20.7982C133.814 20.5711 133.37 20.2162 133.035 19.7336C132.7 19.2367 132.533 18.605 132.533 17.8385C132.533 16.7454 132.897 15.9079 133.624 15.3259C134.352 14.7297 135.466 14.4316 136.965 14.4316H139.323C139.407 14.4316 139.476 14.3648 139.476 14.2825C139.476 13.9986 139.308 13.7857 138.973 13.6437C138.653 13.4876 138.129 13.4095 137.401 13.4095C136.848 13.4095 136.252 13.4592 135.611 13.5586C135.23 13.6104 134.859 13.6781 134.5 13.7616C134.16 13.8406 133.821 13.5965 133.821 13.2554V11.702C133.821 11.498 133.946 11.3122 134.143 11.2442C134.635 11.0742 135.219 10.9371 135.895 10.833C136.725 10.6911 137.54 10.6201 138.34 10.6201C140.029 10.6201 141.382 10.9608 142.401 11.6422C143.42 12.3094 143.929 13.3669 143.929 14.8149V20.419C143.929 20.699 143.697 20.926 143.41 20.926H140.091C139.934 20.926 139.798 20.8223 139.76 20.6746C139.699 20.4367 139.4 20.34 139.184 20.4659C138.907 20.6277 138.589 20.7669 138.231 20.8834C137.678 21.0537 136.994 21.1389 136.179 21.1389ZM137.882 18.5624C138.246 18.5624 138.551 18.5057 138.799 18.3921C138.991 18.2984 139.163 18.1894 139.317 18.0651C139.422 17.9791 139.476 17.8481 139.476 17.7136V17.3447C139.476 17.0647 139.243 16.8377 138.956 16.8377H137.991C137.219 16.8377 136.834 17.1287 136.834 17.7107C136.834 18.2785 137.183 18.5624 137.882 18.5624Z"
          fill="#1E1E1E" />
        <path id="Vector_3"
          d="M119.563 20.9259C119.327 20.9259 119.121 20.7708 119.061 20.5482L116.606 11.4693C116.519 11.1477 116.768 10.833 117.108 10.833H120.522C120.762 10.833 120.971 10.9934 121.027 11.2211L121.55 13.336C121.673 13.8324 122.386 13.8604 122.55 13.3752L122.87 12.4218C122.888 12.3708 122.896 12.3175 122.896 12.2638V11.34C122.896 11.06 123.129 10.833 123.416 10.833H125.905C126.139 10.833 126.345 10.9863 126.406 11.2072L126.939 13.1222C127.081 13.631 127.826 13.6173 127.947 13.1036L128.392 11.2258C128.447 10.9959 128.657 10.833 128.899 10.833H132.308C132.649 10.833 132.898 11.1477 132.811 11.4693L130.356 20.5482C130.296 20.7708 130.089 20.9259 129.853 20.9259H126.457C126.234 20.9259 126.036 20.7871 125.965 20.5808L125.223 18.4338C125.064 17.9737 124.397 17.9737 124.238 18.4338L123.496 20.5808C123.425 20.7871 123.226 20.9259 123.003 20.9259H119.563Z"
          fill="#1E1E1E" />
        <path id="Vector_4"
          d="M110.191 21.1386C109.216 21.1386 108.284 21.0605 107.396 20.9044C106.661 20.7729 106.019 20.5962 105.469 20.3742C105.284 20.2994 105.169 20.1197 105.169 19.9242V17.4641C105.169 17.093 105.566 16.8454 105.922 16.9778C106.393 17.1534 106.892 17.3053 107.418 17.4336C108.248 17.6323 109.005 17.7317 109.689 17.7317C110.271 17.7317 110.715 17.6749 111.021 17.5614C111.341 17.4478 111.501 17.2349 111.501 16.9226C111.501 16.5677 111.261 16.3122 110.78 16.156C110.3 15.9857 109.609 15.7515 108.706 15.4534C107.775 15.1411 107.04 14.8075 106.501 14.4526C105.977 14.0835 105.599 13.6434 105.366 13.1324C105.133 12.6072 105.017 11.9684 105.017 11.216C105.017 8.40534 107.018 7 111.021 7C111.515 7 112.039 7.03549 112.593 7.10647C113.16 7.16325 113.699 7.24132 114.208 7.34069C114.568 7.39924 114.891 7.46451 115.175 7.53648C115.394 7.59183 115.54 7.78839 115.54 8.00886V10.4939C115.54 10.8511 115.171 11.0963 114.823 10.9839C114.352 10.8314 113.907 10.7172 113.488 10.6411C112.876 10.5134 112.316 10.4495 111.807 10.4495C111.297 10.4495 110.831 10.4921 110.409 10.5772C110.002 10.6482 109.798 10.8469 109.798 11.1734C109.798 11.4432 109.98 11.649 110.344 11.7909C110.708 11.9187 111.319 12.0961 112.178 12.3233C113.328 12.6356 114.194 13.0046 114.776 13.4305C115.373 13.8564 115.773 14.3603 115.977 14.9423C116.195 15.5101 116.304 16.1631 116.304 16.9013C116.304 18.1789 115.795 19.208 114.776 19.9888C113.757 20.7553 112.229 21.1386 110.191 21.1386Z"
          fill="#1E1E1E" />
        <path id="Vector_5"
          d="M94.8089 20.9651C94.5218 20.9651 94.2891 20.7381 94.2891 20.4581V11.3791C94.2891 11.0991 94.5218 10.8721 94.8089 10.8721H98.5847C98.7385 10.8721 98.8691 10.9817 98.8922 11.13C98.9252 11.3426 99.1699 11.4571 99.3698 11.3664C99.6923 11.22 100.073 11.0837 100.511 10.9573C100.982 10.8218 101.46 10.7322 101.946 10.6885C102.236 10.6625 102.476 10.893 102.476 11.1773V13.5577C102.476 13.8298 102.256 14.0527 101.978 14.0753C101.751 14.0938 101.509 14.1191 101.254 14.1513C100.817 14.2081 100.395 14.279 99.9874 14.3642C99.7371 14.4094 99.5103 14.4633 99.3072 14.5258C99.1078 14.5872 98.9831 14.7737 98.9831 14.9776V20.4581C98.9831 20.7381 98.7504 20.9651 98.4633 20.9651H94.8089Z"
          fill="#1E1E1E" />
        <path id="Vector_6"
          d="M88.3362 21.178C87.1281 21.178 86.0437 20.9863 85.0831 20.603C84.137 20.2056 83.3947 19.6165 82.8562 18.8357C82.3176 18.055 82.0483 17.0968 82.0483 15.9612C82.0483 14.3571 82.5214 13.0724 83.4675 12.1071C84.4281 11.1418 85.8618 10.6592 87.7685 10.6592C89.5006 10.6592 90.8688 11.085 91.8731 11.9368C92.8774 12.7743 93.3795 13.9525 93.3795 15.4714V16.7105C93.3795 16.9905 93.1468 17.2174 92.8597 17.2174H87.1701C86.7887 17.2174 86.567 17.6027 86.8785 17.8174C87.431 18.1982 88.3172 18.3886 89.537 18.3886C90.1774 18.3886 90.796 18.3389 91.3928 18.2395C91.6513 18.1903 91.888 18.1385 92.1028 18.0839C92.4587 17.9936 92.8337 18.2464 92.8337 18.6051V20.1347C92.8337 20.3298 92.7196 20.5095 92.5339 20.5822C91.518 20.9794 90.1187 21.178 88.3362 21.178ZM86.4149 14.3313C86.3364 14.6006 86.5821 14.8326 86.8692 14.8326H89.0785C89.2352 14.8326 89.3623 14.7087 89.3623 14.5558C89.3623 14.2577 89.2532 14.0022 89.0348 13.7893C88.8311 13.5763 88.4599 13.4699 87.9214 13.4699C87.3391 13.4699 86.9316 13.5905 86.6987 13.8318C86.5667 13.9687 86.4721 14.1351 86.4149 14.3313Z"
          fill="#1E1E1E" />
        <path id="Vector_7"
          d="M69.4974 23.9998C69.2103 23.9998 68.9775 23.7728 68.9775 23.4928V11.3791C68.9775 11.0991 69.2103 10.8721 69.4974 10.8721H72.7668C72.9276 10.8721 73.0689 10.976 73.113 11.1268C73.1824 11.3635 73.4742 11.4593 73.6904 11.3323C73.9741 11.1656 74.2735 11.0264 74.5886 10.9147C75.0689 10.7444 75.6365 10.6592 76.2915 10.6592C77.8489 10.6592 79.0424 11.0637 79.8721 11.8729C80.7163 12.682 81.1384 13.9951 81.1384 15.8121C81.1384 17.6149 80.6872 18.9635 79.7848 19.8578C78.8969 20.7379 77.667 21.178 76.095 21.178C75.6584 21.178 75.2217 21.1354 74.7851 21.0502C74.6677 21.0273 74.555 21.0024 74.4471 20.9753C74.077 20.8828 73.6716 21.1398 73.6716 21.5125V23.4928C73.6716 23.7728 73.4388 23.9998 73.1518 23.9998H69.4974ZM74.9161 17.8775C75.3818 17.8775 75.7384 17.7285 75.9859 17.4304C76.2333 17.1181 76.357 16.5929 76.357 15.8547C76.357 15.1307 76.2333 14.6339 75.9859 14.3642C75.753 14.0945 75.4037 13.9596 74.9379 13.9596C74.5367 13.9596 74.1761 14.0685 73.8562 14.2864C73.7337 14.3698 73.6716 14.5115 73.6716 14.6572V17.2233C73.6716 17.3807 73.7448 17.5319 73.8805 17.6171C73.9956 17.6895 74.108 17.7479 74.2174 17.7924C74.4066 17.8491 74.6395 17.8775 74.9161 17.8775Z"
          fill="#1E1E1E" />
        <path id="Vector_8"
          d="M56.4271 23.9998C56.14 23.9998 55.9072 23.7728 55.9072 23.4928V11.3791C55.9072 11.0991 56.14 10.8721 56.4271 10.8721H59.6965C59.8573 10.8721 59.9986 10.976 60.0427 11.1268C60.1121 11.3635 60.4039 11.4593 60.6201 11.3323C60.9038 11.1656 61.2032 11.0264 61.5182 10.9147C61.9986 10.7444 62.5662 10.6592 63.2212 10.6592C64.7786 10.6592 65.9721 11.0637 66.8018 11.8729C67.646 12.682 68.0681 13.9951 68.0681 15.8121C68.0681 17.6149 67.6169 18.9635 66.7144 19.8578C65.8266 20.7379 64.5967 21.178 63.0247 21.178C62.5881 21.178 62.1514 21.1354 61.7147 21.0502C61.5973 21.0273 61.4847 21.0024 61.3768 20.9753C61.0067 20.8828 60.6013 21.1398 60.6013 21.5125V23.4928C60.6013 23.7728 60.3685 23.9998 60.0814 23.9998H56.4271ZM61.8457 17.8775C62.3115 17.8775 62.6681 17.7285 62.9155 17.4304C63.163 17.1181 63.2867 16.5929 63.2867 15.8547C63.2867 15.1307 63.163 14.6339 62.9155 14.3642C62.6827 14.0945 62.3333 13.9596 61.8676 13.9596C61.4664 13.9596 61.1058 14.0685 60.7859 14.2864C60.6634 14.3698 60.6013 14.5115 60.6013 14.6572V17.2233C60.6013 17.3807 60.6745 17.5319 60.8102 17.6171C60.9253 17.6895 61.0376 17.7479 61.1471 17.7924C61.3363 17.8491 61.5692 17.8775 61.8457 17.8775Z"
          fill="#1E1E1E" />
        <path id="Vector_9"
          d="M50.4737 9.77118C50.1867 9.77118 49.9539 9.5442 49.9539 9.26421V7.74428C49.9539 7.46429 50.1867 7.2373 50.4737 7.2373H54.4775C54.7646 7.2373 54.9973 7.46429 54.9973 7.74428V9.26421C54.9973 9.5442 54.7646 9.77118 54.4775 9.77118H50.4737ZM50.8231 20.9501C50.536 20.9501 50.3032 20.7231 50.3032 20.4431V14.6858C50.3032 14.4058 50.0705 14.1789 49.7834 14.1789H49.4237C49.113 14.1789 48.8717 13.9148 48.9073 13.6138L49.1803 11.306C49.2106 11.0502 49.4327 10.8571 49.6967 10.8571H54.4775C54.7646 10.8571 54.9973 11.0841 54.9973 11.3641V20.4431C54.9973 20.7231 54.7646 20.9501 54.4775 20.9501H50.8231Z"
          fill="#1E1E1E" />
        <path id="Vector_10"
          d="M46.683 21.163C45.2857 21.163 44.296 20.8862 43.7138 20.3325C43.1461 19.7789 42.8623 18.9059 42.8623 17.7135V7.74428C42.8623 7.46429 43.095 7.2373 43.3821 7.2373H47.0365C47.3236 7.2373 47.5563 7.46429 47.5563 7.74428V17.1386C47.5563 17.4225 47.6146 17.6283 47.731 17.7561C47.8475 17.8696 48.0512 17.9264 48.3423 17.9264C48.5315 17.9264 48.7135 17.9122 48.8881 17.8838C49.148 17.8448 49.4121 18.0272 49.4121 18.2837V20.3389C49.4121 20.5417 49.2889 20.727 49.0936 20.7968C48.7956 20.9033 48.5015 20.9828 48.2113 21.0352C47.8329 21.1204 47.3235 21.163 46.683 21.163Z"
          fill="#1E1E1E" />
        <path id="Vector_11"
          d="M31.5198 20.95C31.2327 20.95 31 20.7231 31 20.4431V7.74428C31 7.46429 31.2327 7.2373 31.5198 7.2373H41.3747C41.6618 7.2373 41.8945 7.46429 41.8945 7.74428V10.0733C41.8945 10.3533 41.6618 10.5803 41.3747 10.5803H36.2139C35.9268 10.5803 35.694 10.8073 35.694 11.0873V11.8833C35.694 12.1632 35.9268 12.3902 36.2139 12.3902H40.5451C40.8322 12.3902 41.0649 12.6172 41.0649 12.8972V15.3114C41.0649 15.5914 40.8322 15.8184 40.5451 15.8184H36.2139C35.9268 15.8184 35.694 16.0454 35.694 16.3254V20.4431C35.694 20.7231 35.4613 20.95 35.1742 20.95H31.5198Z"
          fill="#1E1E1E" />
      </g>
      <g id="Group 8">
        <path id="Vector_12" fill-rule="evenodd" clip-rule="evenodd"
          d="M12.2171 24.7947C8.57269 24.792 5.63688 23.9175 3.5857 22.3467C1.50993 20.7571 0.408691 18.5011 0.408691 15.9485C0.408691 13.4889 1.50744 11.7154 2.75075 10.5165C3.72515 9.5771 4.8003 8.97548 5.54899 8.62929C5.3797 8.10969 5.16846 7.42954 4.97945 6.72693C4.72664 5.78686 4.47858 4.68374 4.47858 3.87551C4.47858 2.91883 4.68707 1.95792 5.24949 1.21135C5.84374 0.422594 6.73837 0 7.81452 0C8.65558 0 9.36969 0.311983 9.92861 0.850182C10.4629 1.36454 10.8187 2.0478 11.0643 2.76003C11.4958 4.01146 11.6638 5.58374 11.7109 7.15289H12.7417C12.7889 5.58374 12.9568 4.01146 13.3884 2.76003C13.634 2.0478 13.9895 1.36466 14.524 0.850182C15.083 0.312108 15.797 0 16.6381 0C17.7143 0 18.6088 0.422594 19.2031 1.21135C19.7655 1.95792 19.9741 2.91883 19.9741 3.87551C19.9741 4.68374 19.7259 5.78686 19.4731 6.72693C19.2841 7.42954 19.0729 8.10969 18.9036 8.62929C19.6523 8.97548 20.7276 9.5771 21.7018 10.5167C22.9451 11.7154 24.0439 13.4889 24.0439 15.9485C24.0439 18.5011 22.9428 20.7571 20.8669 22.3467C18.8157 23.9175 15.8799 24.792 12.2355 24.7947H12.2171Z"
          fill="#633001" />
        <path id="Vector_13"
          d="M7.81449 0.910156C6.23835 0.910156 5.51276 2.09816 5.51276 3.74098C5.51276 5.04684 6.35583 7.66205 6.70164 8.68015C6.77954 8.90924 6.6572 9.16005 6.43423 9.24881C5.17094 9.75205 1.44287 11.5945 1.44287 15.8141C1.44287 20.2589 5.23149 23.6103 12.2181 23.6156L12.2263 23.6155L12.2347 23.6156C19.2212 23.6103 23.0098 20.2589 23.0098 15.8141C23.0098 11.5945 19.2817 9.75205 18.0184 9.24881C17.7955 9.16017 17.6732 8.90924 17.751 8.68015C18.097 7.66218 18.94 5.04684 18.94 3.74098C18.94 2.09804 18.2144 0.910156 16.6382 0.910156C14.3693 0.910156 13.8036 4.15695 13.7633 7.6417C13.7607 7.87429 13.5744 8.06305 13.3442 8.06305H11.1086C10.8783 8.06305 10.6921 7.87429 10.6894 7.6417C10.6491 4.15695 10.0835 0.910156 7.81449 0.910156Z"
          fill="#D1884F" />
        <path id="Vector_14"
          d="M12.2347 22.1915C7.10139 22.1915 1.45173 19.4156 1.44287 15.8223V15.839C1.44287 20.2874 5.23748 23.6406 12.2347 23.6406C19.2319 23.6406 23.0265 20.2874 23.0265 15.839V15.8223C23.0177 19.4156 17.368 22.1915 12.2347 22.1915Z"
          fill="#FEDC90" />
        <path id="Vector_15"
          d="M9.38248 14.7181C9.38248 15.9313 8.81495 16.5632 8.11483 16.5632C7.41471 16.5632 6.84717 15.9313 6.84717 14.7181C6.84717 13.5049 7.41471 12.873 8.11483 12.873C8.81495 12.873 9.38248 13.5049 9.38248 14.7181ZM17.6223 14.7181C17.6223 15.9313 17.0547 16.5632 16.3546 16.5632C15.6545 16.5632 15.0869 15.9313 15.0869 14.7181C15.0869 13.5049 15.6545 12.873 16.3546 12.873C17.0547 12.873 17.6223 13.5049 17.6223 14.7181Z"
          fill="#633001" />
      </g>
    </g>
  </g>
</svg>