<svg width="32" height="32" viewBox="0 0 32 32" fill="none" xmlns="http://www.w3.org/2000/svg">
<g id="Component 2">
<path id="Vector" fill-rule="evenodd" clip-rule="evenodd" d="M15.9998 1.87109C8.19674 1.87109 1.87109 8.19674 1.87109 15.9998C1.87109 23.8028 8.19674 30.1286 15.9998 30.1286C23.8029 30.1286 30.1284 23.8028 30.1284 15.9998C30.1284 8.19674 23.8029 1.87109 15.9998 1.87109ZM3.89775 15.9998C3.89775 9.31604 9.31603 3.89776 15.9998 3.89776C22.6835 3.89776 28.1018 9.31604 28.1018 15.9998C28.1018 22.6835 22.6835 28.1019 15.9998 28.1019C9.31603 28.1019 3.89775 22.6835 3.89775 15.9998ZM16.0001 8.53372C16.5892 8.53372 17.0667 9.01129 17.0667 9.60039V14.9337H22.4C22.9892 14.9337 23.4667 15.4113 23.4667 16.0004C23.4667 16.5895 22.9892 17.0671 22.4 17.0671H17.0667V22.4004C17.0667 22.9894 16.5892 23.4671 16.0001 23.4671C15.411 23.4671 14.9334 22.9894 14.9334 22.4004V17.0671H9.60007C9.01097 17.0671 8.5334 16.5895 8.5334 16.0004C8.5334 15.4113 9.01097 14.9337 9.60007 14.9337H14.9334V9.60039C14.9334 9.01129 15.411 8.53372 16.0001 8.53372Z" fill="#242337"/>
</g>
</svg>
