<svg width="155" height="150" viewBox="0 0 155 150" fill="none" xmlns="http://www.w3.org/2000/svg">
<g id="Group 3466063">
<g id="Component 34">
<path id="Vector 36" d="M130.319 45.9004C118.973 59.514 110.53 65.2702 107.726 66.4466L116.531 88.0782C127.496 83.2558 138.836 62.7918 141.353 56.8913C143.869 50.9909 144.501 28.8834 130.319 45.9004Z" fill="url(#paint0_linear_221_6970)"/>
<g id="Ellipse 12" style="mix-blend-mode:multiply" opacity="0.3">
<ellipse cx="79.7501" cy="155.334" rx="47.7293" ry="7.31688" transform="rotate(-2.88626 79.7501 155.334)" fill="#D1EFF7"/>
</g>
<g id="Vector 39">
<path d="M97.0414 146.458C90.0557 150.641 83.6652 150.254 80.4999 149.038C80.2289 149.831 79.9882 150.874 79.9314 151.929C87.6384 155.227 95.9373 149.996 99.1234 146.968C98.4336 146.749 97.7286 146.579 97.0414 146.458Z" fill="#F06134"/>
<path d="M81.5699 144.278C81.5855 144.587 80.8631 147.58 80.4999 149.038C83.6652 150.254 90.0557 150.641 97.0414 146.458C100.647 144.299 104.412 140.923 107.973 135.814L81.5699 144.278Z" fill="#E6E5E5"/>
<path d="M83.7407 156.54C86.0019 156.52 87.6366 155.88 88.768 155.074C88.6207 155.176 92.9609 158.501 96.5043 154.684C98.8495 155.649 103.728 156.697 104.482 153.166C105.151 150.029 102.298 147.976 99.1234 146.968C95.9373 149.996 87.6384 155.227 79.9314 151.929C79.808 154.22 80.5526 156.568 83.7407 156.54Z" fill="#FD773E"/>
</g>
<g id="Vector 34">
<path d="M79.8977 145.763C99.5294 146.153 110.806 134.259 115.335 124.278C122.044 74.3356 96.3606 72.9329 83.9203 84.0884C75.9447 78.8368 56.4458 79.3239 51.2665 91.7569C49.0588 97.0565 48.4278 100.973 47.4632 104.854C46.3188 109.46 43.5551 112.46 39.4959 114.274C37.1709 115.313 35.1325 118.424 36.3329 121.906C44.2549 140.033 68.3512 145.387 79.8977 145.763Z" fill="white"/>
<path d="M42.1686 70.0909C42.597 73.22 45.4803 80.8017 45.468 84.5284C45.4315 95.529 39.4669 99.2301 37.2376 103.803C34.9933 108.408 33.2619 111.96 35.3136 118.899C35.6651 120.088 35.9637 121.061 36.3329 121.906C35.1325 118.424 37.1709 115.313 39.4959 114.274C43.5551 112.46 46.3188 109.46 47.4632 104.854C48.4278 100.973 49.0588 97.0565 51.2665 91.7569C56.4458 79.3239 75.9447 78.8368 83.9203 84.0884C96.3606 72.9329 122.044 74.3356 115.335 124.278C122.928 109.098 121.025 84.3158 116.69 69.094C113.865 59.174 116.476 26.3607 88.0467 15.55C83.1211 14.0602 77.3616 13.6416 70.6457 14.6587C41.6559 18.792 34.0963 45.8017 42.1686 70.0909Z" fill="url(#paint1_linear_221_6970)"/>
</g>
<g id="Vector 35">
<path d="M79.112 64.5936C75.1019 65.2522 69.247 59.8008 67.9832 52.1064C68.7684 50.1898 70.0901 48.6948 71.9312 47.6766C69.5876 40.7611 63.466 30.3157 54.1331 34.5219C35.0504 43.122 38.5602 82.1326 77.0569 75.1355L79.8746 74.6727L82.6923 74.2099C121.405 68.5251 113.651 30.2115 92.8204 28.1674C82.6323 27.1676 80.1736 39.0223 80.1653 46.3241C82.2353 46.6999 83.9658 47.6936 85.3228 49.2583C86.5867 56.9527 83.1221 63.9349 79.112 64.5936Z" fill="white"/>
<path fill-rule="evenodd" clip-rule="evenodd" d="M67.9832 52.1064C69.247 59.8008 75.1019 65.2522 79.112 64.5936C83.1221 63.9349 86.5867 56.9527 85.3228 49.2583C83.9658 47.6936 82.2353 46.6999 80.1653 46.3241C78.8845 46.0916 77.4737 46.0957 75.941 46.3474C74.4083 46.5992 73.0703 47.0466 71.9312 47.6766C70.0901 48.6948 68.7684 50.1898 67.9832 52.1064ZM70.7553 53.5431C72.808 54.1937 75.6012 53.7488 77.1158 53.5C78.6304 53.2512 81.4192 52.7792 83.1559 51.5062C83.1409 51.517 83.1132 51.5844 83.0676 51.6956C83.008 51.8408 82.9496 52.2179 82.8687 52.7403C82.698 53.8429 82.427 55.5928 81.8333 57.1749C81.1884 58.8936 80.1627 60.4143 78.4712 60.6921C76.9682 60.939 75.6013 60.096 74.4517 58.9155C73.0847 57.5119 72.0249 55.6311 71.4091 54.5381C71.1692 54.1123 70.9967 53.8061 70.8996 53.6943C70.8207 53.6035 70.773 53.5484 70.7553 53.5431Z" fill="#FE7642"/>
<path d="M77.1158 53.5C75.6012 53.7488 72.808 54.1937 70.7553 53.5431C70.773 53.5484 70.8207 53.6035 70.8996 53.6943C70.9967 53.8061 71.1692 54.1123 71.4091 54.5381C72.0249 55.6311 73.0847 57.5119 74.4517 58.9155C75.4487 57.552 78.321 55.2948 81.8333 57.1749C82.427 55.5928 82.698 53.8429 82.8687 52.7403C82.9496 52.2179 83.008 51.8408 83.0676 51.6956C83.1132 51.5844 83.1409 51.517 83.1559 51.5062C81.4192 52.7792 78.6304 53.2512 77.1158 53.5Z" fill="#970000"/>
<path d="M74.4517 58.9155C75.6013 60.096 76.9682 60.939 78.4712 60.6921C80.1627 60.4143 81.1884 58.8936 81.8333 57.1749C78.321 55.2948 75.4487 57.552 74.4517 58.9155Z" fill="#E33D3B"/>
</g>
<g id="Group 16">
<ellipse id="Ellipse 1" cx="60.4921" cy="51.2226" rx="3.29475" ry="5.16177" transform="rotate(-9.32776 60.4921 51.2226)" fill="#1A395F" stroke="#1A395F" stroke-width="0.626187"/>
</g>
<g id="Group 17">
<path id="Vector 18" d="M96.5057 41.3758L89.794 46.8747L96.7288 47.5635" stroke="#1A395F" stroke-width="2.50475" stroke-linecap="round" stroke-linejoin="round"/>
</g>
<circle id="Ellipse 9" cx="53.0476" cy="61.4602" r="6.36985" transform="rotate(-9.32776 53.0476 61.4602)" fill="#FDCCBE"/>
<circle id="Ellipse 10" cx="102.466" cy="53.343" r="6.36985" transform="rotate(-9.32776 102.466 53.343)" fill="#FDCCBE"/>
<path id="Vector 37" d="M16.2193 66.3914C38.0767 70.0764 48.9447 77.7918 51.7679 81.4938C50.3658 86.7236 47.2325 97.1997 45.9162 97.2661C19.727 91.697 6.8113 77.065 5.73891 70.2296C4.881 64.7612 12.3684 65.3923 16.2193 66.3914Z" fill="url(#paint2_linear_221_6970)"/>
<g id="Vector 38">
<path fill-rule="evenodd" clip-rule="evenodd" d="M56.3432 131.819C54.6953 126.08 50.3423 126.348 49.646 127.936C45.3869 122.756 40.5398 126.309 40.935 128.375C38.9085 125.712 31.4012 128.856 36.9186 135.322C34.5553 131.559 38.6928 130.736 41.057 130.795C43.0994 126.655 47.4624 129.534 49.3887 131.491C54.1621 130.706 56.628 138.888 57.2643 143.077C58.2337 140.43 57.6258 136.286 56.3432 131.819Z" fill="#FD773E"/>
<path d="M36.9186 135.322C42.436 141.787 48.4052 146.629 53.5639 145.981C55.5104 145.737 56.6769 144.682 57.2643 143.077C56.628 138.888 54.1621 130.706 49.3887 131.491C47.4624 129.534 43.0994 126.655 41.057 130.795C38.6928 130.736 34.5553 131.559 36.9186 135.322Z" fill="#F06134"/>
</g>
<path id="Vector 40" opacity="0.8" d="M146.929 51.1051C147.681 46.9214 146.233 43.149 144.91 41.0169C144.75 40.7592 145.026 40.4351 145.287 40.5894C149.648 43.1662 149.025 47.8752 147.509 51.348C147.369 51.6707 146.867 51.4516 146.929 51.1051Z" fill="white"/>
<path id="Vector 41" opacity="0.8" d="M11.626 86.4958C8.63599 84.2182 6.67533 81.3343 5.69677 79.3864C5.56039 79.1149 5.16406 79.1879 5.18419 79.491C5.41366 82.945 8.44315 85.4784 11.3586 87.0223C11.6761 87.1904 11.9117 86.7135 11.626 86.4958Z" fill="white"/>
<g id="Vector 42" opacity="0.8">
<path d="M23.6478 120.311C24.3813 123.158 26.1528 125.662 27.3864 127.061C27.5806 127.282 27.3767 127.633 27.0966 127.545C22.5507 126.113 22.415 122.544 23.1215 120.268C23.2058 119.996 23.5768 120.035 23.6478 120.311Z" fill="white"/>
<path d="M29.5826 123.947C26.888 119.353 27.4976 114.259 28.3701 111.585C28.4546 111.325 28.1856 111.099 27.9724 111.269C24.6903 113.881 25.6563 120.974 29.2248 124.287C29.4581 124.503 29.7437 124.221 29.5826 123.947Z" fill="white"/>
</g>
</g>
<g id="Group 3466062">
<path id="~" d="M145.253 8.64616C145.541 8.16697 145.356 7.4356 145.784 7.07633L146.936 6.11148C147.359 5.7567 148.001 5.80726 148.275 6.2869C148.48 6.64573 148.634 7.01676 148.736 7.4C148.918 8.08234 148.904 8.76252 148.693 9.44053C148.483 10.1035 148.043 10.7159 147.372 11.2778C146.571 11.9493 145.648 12.2845 144.604 12.2834C144.294 12.2789 144.012 12.2503 143.759 12.1978C143.5 12.137 143.265 12.0974 143.054 12.0789C142.844 12.0604 142.657 12.1197 142.493 12.2567C142.322 12.4006 142.246 12.5756 142.265 12.7818C142.313 13.125 142.361 13.5366 142.096 13.7592L140.672 14.9528C140.248 15.3076 139.607 15.2549 139.345 14.7688C139.26 14.6103 139.182 14.4461 139.113 14.2761C138.922 13.7822 138.823 13.2738 138.816 12.7507C138.81 12.2127 138.916 11.692 139.135 11.1888C139.361 10.6787 139.724 10.2147 140.223 9.79671C141.089 9.07039 142.089 8.72677 143.221 8.76586C143.456 8.76382 143.696 8.79249 143.94 8.85188C144.178 8.9031 144.402 8.93796 144.612 8.95648C144.816 8.96682 144.979 8.9206 145.102 8.81782C145.166 8.76401 145.216 8.70679 145.253 8.64616Z" fill="white"/>
<g id="Vector">
<path d="M137.622 21.2474C137.861 21.7614 137.629 22.3724 137.108 22.5955L135.514 23.2778C134.994 23.5007 134.392 23.2471 134.185 22.72C133.558 21.123 132.929 19.5878 132.298 18.1143C131.668 16.6423 130.989 15.1305 130.26 13.5789C130.018 13.0645 130.249 12.451 130.772 12.2273L132.39 11.5346C132.911 11.3114 133.513 11.5658 133.719 12.0938C134.322 13.6345 134.946 15.1711 135.593 16.7037C136.244 18.2237 136.92 19.7383 137.622 21.2474Z" fill="white"/>
<path d="M129.512 11.0685C129.952 11.3053 130.504 11.282 131.166 10.9984C131.808 10.7233 132.196 10.3447 132.329 9.86238C132.471 9.37588 132.435 8.88203 132.221 8.38085C132.011 7.89056 131.678 7.52368 131.223 7.28019C130.768 7.03671 130.224 7.0504 129.592 7.32125C128.929 7.60479 128.534 7.99315 128.406 8.48631C128.288 8.97525 128.334 9.46487 128.544 9.95515C128.758 10.4563 129.081 10.8275 129.512 11.0685Z" fill="white"/>
</g>
<path id="Vector_2" d="M121.875 28.0188C122.092 28.5265 121.857 29.1143 121.349 29.3316L119.759 30.0123C119.24 30.2343 118.641 29.9837 118.433 29.4596C116.717 25.1434 114.89 20.8749 112.951 16.6543C112.715 16.1418 112.947 15.5352 113.466 15.3132L115.056 14.6325C115.564 14.4151 116.151 14.6505 116.369 15.1582L117.939 18.8267C118.157 19.3344 118.744 19.5698 119.252 19.3525L122.826 17.8222C123.334 17.6049 123.569 17.0171 123.352 16.5094L121.781 12.8408C121.564 12.3331 121.799 11.7453 122.307 11.528L123.897 10.8472C124.416 10.6253 125.015 10.8759 125.223 11.4C126.939 15.7162 128.766 19.9847 130.706 24.2053C130.941 24.7178 130.709 25.3244 130.19 25.5464L128.6 26.2271C128.093 26.4445 127.505 26.2091 127.287 25.7014L125.717 22.0329C125.499 21.5251 124.912 21.2898 124.404 21.5071L120.83 23.0374C120.322 23.2547 120.087 23.8425 120.304 24.3502L121.875 28.0188Z" fill="white"/>
</g>
</g>
<defs>
<linearGradient id="paint0_linear_221_6970" x1="142.362" y1="39.3741" x2="112.704" y2="77.5973" gradientUnits="userSpaceOnUse">
<stop stop-color="#B2C1D6"/>
<stop offset="1" stop-color="#9AABC7"/>
</linearGradient>
<linearGradient id="paint1_linear_221_6970" x1="63.3596" y1="15.8442" x2="84.6939" y2="145.73" gradientUnits="userSpaceOnUse">
<stop stop-color="#506592"/>
<stop offset="1" stop-color="#C7D1E0"/>
</linearGradient>
<linearGradient id="paint2_linear_221_6970" x1="5.60229" y1="67.5195" x2="45.5307" y2="83.8461" gradientUnits="userSpaceOnUse">
<stop stop-color="#B4C3D7"/>
<stop offset="1" stop-color="#8B9BB9"/>
</linearGradient>
</defs>
</svg>
