<svg width="20" height="20" viewBox="0 0 20 20" fill="none" xmlns="http://www.w3.org/2000/svg">
<g id="Component 1">
<path id="Vector" d="M5.08719 3.757L10.0002 1L14.9109 3.757L13.1061 4.7755L9.99941 3.037L6.89273 4.7755L5.08719 3.757ZM14.9109 7.234L13.1061 6.2155L9.99941 7.954L6.89273 6.2155L5.08796 7.234V9.271L8.19309 11.0095V14.4865L9.99941 15.5057L11.805 14.4865V11.0095L14.9109 9.271V7.234ZM14.9109 12.748V10.711L13.1061 11.7295V13.7665L14.9109 12.748ZM16.1935 13.468L13.0876 15.2065V17.2443L17.999 14.4865V8.9725L16.1943 9.991L16.1935 13.468ZM14.3887 5.4955L16.1935 6.514V8.551L17.999 7.5325V5.4955L16.1943 4.477L14.3887 5.4955ZM8.19232 15.9445V17.9815L9.99941 19L11.805 17.9815V15.9445L10.0002 16.963L8.19309 15.9445H8.19232ZM5.08642 12.748L6.89196 13.7665V11.7295L5.08719 10.711L5.08642 12.748ZM8.19232 5.4955L9.99941 6.514L11.805 5.4955L10.0002 4.477L8.19309 5.4955H8.19232ZM3.8038 6.514L5.61088 5.4955L3.80457 4.477L1.99979 5.4955V7.5325L3.80457 8.551L3.8038 6.514ZM3.8038 9.991L1.99902 8.9725V14.4865L6.91047 17.2443V15.2065L3.8038 13.468V9.991Z" fill="#191A2E"/>
</g>
</svg>
