<svg width="32" height="32" viewBox="0 0 32 32" fill="none" xmlns="http://www.w3.org/2000/svg">
<g id="Container" opacity="0.5">
<g id="Component 1">
<path id="Vector" d="M22.2305 10.1634C21.0905 9.62109 19.8561 9.22744 18.5704 9C18.5478 9.00033 18.5262 9.00976 18.5104 9.02624C18.3561 9.31492 18.1761 9.69107 18.0561 9.97975C16.6923 9.76993 15.3054 9.76993 13.9417 9.97975C13.8217 9.68232 13.6417 9.31492 13.4788 9.02624C13.4702 9.00875 13.4445 9 13.4188 9C12.1331 9.22744 10.9073 9.62109 9.75872 10.1634C9.75014 10.1634 9.74157 10.1722 9.733 10.1809C7.40151 13.7413 6.75863 17.2054 7.07578 20.6345C7.07578 20.652 7.08436 20.6695 7.1015 20.6782C8.6444 21.8329 10.1273 22.5327 11.5931 22.9964C11.6188 23.0051 11.6445 22.9964 11.6531 22.9789C11.9959 22.4978 12.3045 21.9904 12.5702 21.4568C12.5874 21.4218 12.5702 21.3868 12.5359 21.378C12.0473 21.1856 11.5845 20.9582 11.1302 20.6957C11.0959 20.6782 11.0959 20.6257 11.1216 20.5995C11.2159 20.5295 11.3102 20.4508 11.4045 20.3808C11.4216 20.3633 11.4473 20.3633 11.4645 20.3721C14.4131 21.7455 17.5932 21.7455 20.5076 20.3721C20.5247 20.3633 20.5504 20.3633 20.5676 20.3808C20.6619 20.4595 20.7562 20.5295 20.8504 20.6082C20.8847 20.6345 20.8847 20.687 20.8419 20.7045C20.3961 20.9756 19.9247 21.1943 19.4361 21.3868C19.4018 21.3955 19.3933 21.4393 19.4018 21.4655C19.6761 21.9991 19.9847 22.5065 20.319 22.9876C20.3447 22.9964 20.3704 23.0051 20.3961 22.9964C21.8705 22.5327 23.3534 21.8329 24.8963 20.6782C24.9134 20.6695 24.922 20.652 24.922 20.6345C25.2991 16.6718 24.2963 13.2339 22.2648 10.1809C22.2562 10.1722 22.2476 10.1634 22.2305 10.1634ZM13.0159 18.5438C12.1331 18.5438 11.3959 17.7127 11.3959 16.6893C11.3959 15.6658 12.1159 14.8347 13.0159 14.8347C13.9245 14.8347 14.6446 15.6745 14.636 16.6893C14.636 17.7127 13.916 18.5438 13.0159 18.5438ZM18.9904 18.5438C18.1075 18.5438 17.3704 17.7127 17.3704 16.6893C17.3704 15.6658 18.0904 14.8347 18.9904 14.8347C19.899 14.8347 20.619 15.6745 20.6104 16.6893C20.6104 17.7127 19.899 18.5438 18.9904 18.5438Z" fill="white"/>
</g>
</g>
</svg>
