<svg width="32" height="32" viewBox="0 0 32 32" fill="none" xmlns="http://www.w3.org/2000/svg">
<g id="Container" opacity="0.5">
<g id="Component 1">
<path id="Vector" d="M16.0002 8C11.5824 8 8.00021 11.675 8.00021 16.2036C8.00021 19.8286 10.2931 22.9 13.4716 23.9857C13.5162 23.9954 13.5617 24.0002 13.6074 24C13.9038 24 14.0181 23.7821 14.0181 23.5929C14.0181 23.3964 14.0109 22.8821 14.0074 22.1964C13.7427 22.2585 13.472 22.2908 13.2002 22.2929C11.6609 22.2929 11.3109 21.0964 11.3109 21.0964C10.9466 20.15 10.4216 19.8964 10.4216 19.8964C9.72521 19.4071 10.4181 19.3929 10.4716 19.3929H10.4752C11.2788 19.4643 11.7002 20.2429 11.7002 20.2429C12.1002 20.9429 12.6359 21.1393 13.1145 21.1393C13.4309 21.133 13.7425 21.0599 14.0288 20.925C14.1002 20.3964 14.3074 20.0357 14.5359 19.8286C12.7609 19.6214 10.8931 18.9179 10.8931 15.775C10.8931 14.8786 11.2038 14.1464 11.7145 13.575C11.6324 13.3679 11.3574 12.5321 11.7931 11.4036C11.8515 11.3896 11.9116 11.3836 11.9716 11.3857C12.2609 11.3857 12.9145 11.4964 13.9931 12.2464C15.3036 11.8797 16.6897 11.8797 18.0002 12.2464C19.0788 11.4964 19.7324 11.3857 20.0216 11.3857C20.0817 11.3836 20.1418 11.3896 20.2002 11.4036C20.6359 12.5321 20.3609 13.3679 20.2788 13.575C20.7895 14.15 21.1002 14.8821 21.1002 15.775C21.1002 18.925 19.2288 19.6179 17.4466 19.8214C17.7324 20.075 17.9895 20.575 17.9895 21.3393C17.9895 22.4357 17.9788 23.3214 17.9788 23.5893C17.9788 23.7821 18.0895 24 18.3859 24C18.4339 24.0002 18.4818 23.9954 18.5288 23.9857C21.7109 22.9 24.0002 19.825 24.0002 16.2036C24.0002 11.675 20.4181 8 16.0002 8Z" fill="white"/>
</g>
</g>
</svg>
