<svg width="32" height="32" viewBox="0 0 32 32" fill="none" xmlns="http://www.w3.org/2000/svg">
<g id="Container" opacity="0.5">
<g id="Component 1">
<path id="Vector" d="M24.0002 15.8137C24.0002 14.7596 23.121 13.9023 22.0414 13.9023C21.5737 13.9023 21.1362 14.0693 20.7832 14.3614C20.7716 14.368 20.7602 14.3748 20.7488 14.3817C19.4752 13.5865 17.7862 13.0788 15.918 13.0098L17.0331 9.91546L19.8162 10.5648C19.8185 11.4234 20.5342 12.1214 21.4151 12.1214C22.2966 12.1214 23.0144 11.4215 23.0144 10.5609C23.0144 9.69994 22.2966 9 21.4151 9C20.745 9 20.1725 9.40436 19.9351 9.97476L16.6378 9.2057L15.2684 13.0028C13.3203 13.0386 11.5548 13.553 10.2337 14.3749C9.87805 14.0737 9.43426 13.9021 8.958 13.9021C7.87807 13.9021 7.00018 14.7596 7.00018 15.8135C7.00018 16.4654 7.34484 17.0677 7.90333 17.4183C7.86756 17.6093 7.84894 17.8029 7.84769 17.997C7.84769 20.7556 11.274 23 15.4851 23C19.697 23 23.1234 20.7556 23.1234 17.997C23.1225 17.8085 23.1053 17.6203 23.0718 17.4346C23.6453 17.0866 24.0002 16.4756 24.0002 15.8137ZM18.0823 18.2882C17.9243 18.2882 17.7678 18.2578 17.6218 18.1988C17.4758 18.1398 17.3432 18.0533 17.2315 17.9442C17.1198 17.8351 17.0312 17.7056 16.9708 17.5631C16.9104 17.4206 16.8794 17.2679 16.8795 17.1137C16.8795 16.8814 16.9501 16.6543 17.0824 16.4612C17.2147 16.2681 17.4027 16.1176 17.6226 16.0288C17.8425 15.9399 18.0845 15.9167 18.3179 15.9621C18.5514 16.0075 18.7658 16.1194 18.934 16.2837C19.1023 16.448 19.2168 16.6573 19.2632 16.8851C19.3095 17.113 19.2856 17.3491 19.1944 17.5637C19.1033 17.7782 18.9489 17.9616 18.751 18.0905C18.553 18.2195 18.3203 18.2883 18.0823 18.2882ZM18.3217 20.2907C18.2857 20.3266 17.423 21.1841 15.4716 21.1841C13.5094 21.1841 12.7251 20.3152 12.6923 20.2777C12.6395 20.2172 12.6134 20.1387 12.6197 20.0594C12.626 19.9801 12.6643 19.9065 12.7261 19.8546C12.788 19.8034 12.8679 19.778 12.9488 19.7837C13.0297 19.7895 13.1051 19.826 13.1587 19.8854C13.1761 19.9047 13.8309 20.5842 15.4716 20.5842C17.1396 20.5842 17.8717 19.8804 17.8795 19.8735C17.9367 19.8186 18.0136 19.7876 18.0939 19.7872C18.1742 19.7869 18.2514 19.8171 18.3091 19.8716C18.3669 19.926 18.4005 20.0003 18.4028 20.0786C18.4052 20.1569 18.3761 20.233 18.3217 20.2907ZM11.8558 17.1137C11.853 16.9577 11.8821 16.8028 11.9414 16.6579C12.0007 16.5131 12.0889 16.3812 12.201 16.27C12.313 16.1588 12.4467 16.0705 12.5941 16.0102C12.7415 15.9499 12.8997 15.9189 13.0596 15.919C13.2194 15.9191 13.3776 15.9502 13.525 16.0106C13.6723 16.071 13.8059 16.1595 13.9178 16.2708C14.0298 16.3821 14.1179 16.514 14.177 16.659C14.2361 16.8039 14.2651 16.9588 14.2622 17.1148C14.2564 17.4226 14.127 17.7158 13.9019 17.9315C13.6768 18.1471 13.3739 18.2678 13.0584 18.2677C12.743 18.2675 12.4402 18.1465 12.2153 17.9307C11.9903 17.7148 11.8613 17.4214 11.8558 17.1137Z" fill="white"/>
</g>
</g>
</svg>
