<svg width="32" height="32" viewBox="0 0 32 32" fill="none" xmlns="http://www.w3.org/2000/svg">
<g id="Container" opacity="0.5">
<g id="Component 1">
<path id="Vector" fill-rule="evenodd" clip-rule="evenodd" d="M21.2393 9.09578C21.4483 9.01097 21.6771 8.98172 21.9018 9.01107C22.1265 9.04043 22.339 9.12731 22.517 9.26267C22.6951 9.39804 22.8323 9.57694 22.9143 9.78076C22.9963 9.98458 23.0202 10.2059 22.9834 10.4216L21.065 21.6387C20.879 22.7207 19.6474 23.3412 18.6181 22.8023C17.757 22.3514 16.4781 21.6567 15.3278 20.9318C14.7527 20.5689 12.9908 19.407 13.2073 18.5802C13.3934 17.8733 16.3538 15.2168 18.0454 13.6374C18.7094 13.0169 18.4066 12.659 17.6225 13.2297C15.6755 14.6469 12.5493 16.8019 11.5157 17.4085C10.6039 17.9434 10.1285 18.0348 9.56015 17.9434C8.52318 17.7771 7.56148 17.5194 6.77655 17.2055C5.71589 16.7815 5.76749 15.3758 6.77571 14.9665L21.2393 9.09578Z" fill="white"/>
</g>
</g>
</svg>
