<svg width="32" height="32" viewBox="0 0 32 32" fill="none" xmlns="http://www.w3.org/2000/svg">
<g id="Container" opacity="0.5">
<g id="Component 1">
<g id="Group">
<path id="Vector" d="M22.0303 10.2903C22.0976 10.2134 22.149 10.124 22.1817 10.0272C22.2144 9.93043 22.2278 9.82814 22.2209 9.72619C22.2141 9.62425 22.1873 9.52465 22.142 9.43308C22.0966 9.34151 22.0337 9.25976 21.9568 9.1925C21.8799 9.12524 21.7905 9.07379 21.6937 9.04108C21.5969 9.00838 21.4946 8.99506 21.3927 9.00188C21.2907 9.00871 21.1911 9.03554 21.0996 9.08086C21.008 9.12618 20.9262 9.18909 20.859 9.266L16.8845 13.8082L13.5113 9.31111C13.4389 9.21451 13.3449 9.13611 13.2369 9.08211C13.1289 9.02811 13.0098 9 12.8891 9H9.77799C9.63355 9 9.49196 9.04022 9.36909 9.11616C9.24622 9.1921 9.14692 9.30075 9.08233 9.42994C9.01773 9.55914 8.99038 9.70377 9.00336 9.84763C9.01633 9.99149 9.0691 10.1289 9.15577 10.2444L14.1623 16.9193L9.9701 21.7104C9.90284 21.7874 9.85139 21.8768 9.81869 21.9736C9.78598 22.0703 9.77266 22.1726 9.77948 22.2746C9.78631 22.3765 9.81315 22.4761 9.85846 22.5677C9.90378 22.6593 9.96669 22.741 10.0436 22.8083C10.1205 22.8755 10.2099 22.927 10.3067 22.9597C10.4035 22.9924 10.5058 23.0057 10.6077 22.9989C10.7097 22.9921 10.8093 22.9652 10.9009 22.9199C10.9924 22.8746 11.0742 22.8117 11.1414 22.7348L15.1159 18.1918L18.4891 22.6889C18.5615 22.7855 18.6555 22.8639 18.7635 22.9179C18.8715 22.9719 18.9906 23 19.1113 23H22.2224C22.3669 23 22.5085 22.9598 22.6313 22.8838C22.7542 22.8079 22.8535 22.6992 22.9181 22.5701C22.9827 22.4409 23.01 22.2962 22.9971 22.1524C22.9841 22.0085 22.9313 21.8711 22.8447 21.7556L17.8381 15.0807L22.0303 10.2903Z" fill="white"/>
</g>
</g>
</g>
</svg>
