<svg width="32" height="32" viewBox="0 0 32 32" fill="none" xmlns="http://www.w3.org/2000/svg">
<g id="Container" opacity="0.2">
<g id="Component 1">
<path id="Vector" d="M14.0002 8C15.1068 8 16.1468 8.197 17.1202 8.591C18.0935 8.985 18.9402 9.51925 19.6602 10.1937C20.3802 10.8682 20.9503 11.662 21.3706 12.575C21.7908 13.488 22.0007 14.463 22.0002 15.5C21.9996 16.537 21.7895 17.512 21.3698 18.425C20.95 19.338 20.3802 20.1317 19.6602 20.8062C18.9402 21.4807 18.0935 22.0152 17.1202 22.4097C16.1468 22.8042 15.1068 23.001 14.0002 23C13.2935 23 12.6034 22.9157 11.9298 22.7472C11.2562 22.5787 10.613 22.3255 10.0002 21.9875C11.2402 21.3125 12.217 20.4 12.9306 19.25C13.6442 18.1 14.0007 16.85 14.0002 15.5C13.9996 14.15 13.6428 12.9 12.9298 11.75C12.2167 10.6 11.2402 9.6875 10.0002 9.0125C10.6135 8.675 11.257 8.422 11.9306 8.2535C12.6042 8.085 13.294 8.0005 14.0002 8Z" fill="white"/>
</g>
</g>
</svg>
