<svg width="32" height="32" viewBox="0 0 32 32" fill="none" xmlns="http://www.w3.org/2000/svg">
<g id="Container" opacity="0.2">
<g id="Component 1">
<path id="Vector" d="M16.0031 11.2943C15.5259 11.2943 15.1407 10.9091 15.1407 10.4319V8.86238C15.1407 8.39095 15.5259 8 16.0031 8C16.4745 8 16.8655 8.3852 16.8655 8.86238V10.4319C16.8655 10.9091 16.4745 11.2943 16.0031 11.2943ZM16.0031 20.2343C13.6689 20.2343 11.7659 18.337 11.7659 15.9971C11.7659 14.8734 12.2123 13.7956 13.007 13.001C13.8016 12.2064 14.8793 11.76 16.0031 11.76C17.1269 11.76 18.2046 12.2064 18.9992 13.001C19.7938 13.7956 20.2402 14.8734 20.2402 15.9971C20.2402 18.337 18.3373 20.2343 16.0031 20.2343ZM16.0031 13.4905C14.6175 13.4905 13.4907 14.6173 13.4907 16.0029C13.4907 17.3884 14.6175 18.5153 16.0031 18.5153C17.3886 18.5153 18.5155 17.3884 18.5155 16.0029C18.514 15.337 18.2488 14.6989 17.7779 14.228C17.3071 13.7572 16.669 13.492 16.0031 13.4905ZM11.4555 12.6741C11.7889 13.0075 12.3409 13.0075 12.6743 12.6741C13.0078 12.3406 13.0078 11.7887 12.6743 11.4553L11.5647 10.3457C11.2313 10.0122 10.6793 10.0122 10.3459 10.3457C10.0124 10.6791 10.0124 11.231 10.3459 11.5645L11.4555 12.6741ZM11.2945 16.0029C11.2945 16.4801 10.9093 16.8653 10.4321 16.8653H8.86259C8.39116 16.8653 8.00021 16.4801 8.00021 16.0029C8.00021 15.5314 8.38541 15.1405 8.86259 15.1405H10.4321C10.9093 15.1405 11.2945 15.5257 11.2945 16.0029ZM12.6743 20.5505C13.0078 20.217 13.0078 19.6651 12.6743 19.3317C12.5946 19.251 12.4997 19.187 12.3951 19.1433C12.2905 19.0996 12.1783 19.077 12.0649 19.077C11.9515 19.077 11.8393 19.0996 11.7347 19.1433C11.63 19.187 11.5352 19.251 11.4555 19.3317L10.3459 20.4413C10.0124 20.7747 10.0124 21.3266 10.3459 21.6601C10.6793 21.9935 11.2313 21.9935 11.5647 21.6601L12.6743 20.5505ZM16.0031 20.7057C16.4803 20.7057 16.8655 21.0909 16.8655 21.5681V23.1376C16.8655 23.6091 16.4803 24 16.0031 24C15.5317 24 15.1407 23.6148 15.1407 23.1376V21.5681C15.1407 21.0967 15.5259 20.7057 16.0031 20.7057ZM20.5507 19.3317C20.2172 18.9982 19.6653 18.9982 19.3319 19.3317C19.2512 19.4113 19.1872 19.5062 19.1435 19.6108C19.0998 19.7155 19.0773 19.8277 19.0773 19.9411C19.0773 20.0544 19.0998 20.1667 19.1435 20.2713C19.1872 20.3759 19.2512 20.4708 19.3319 20.5505L20.4415 21.6601C20.7749 21.9935 21.3268 21.9935 21.6603 21.6601C21.9937 21.3266 21.9937 20.7747 21.6603 20.4413L20.5507 19.3317ZM20.7059 16.0029C20.7059 15.5257 21.0911 15.1405 21.5683 15.1405H23.1378C23.6093 15.1405 24.0002 15.5257 24.0002 16.0029C24.0002 16.4743 23.615 16.8653 23.1378 16.8653H21.5683C21.0969 16.8653 20.7059 16.4743 20.7059 16.0029ZM19.3319 11.4553C18.9984 11.7887 18.9984 12.3406 19.3319 12.6741C19.6653 13.0075 20.2115 13.0075 20.5507 12.6741L21.6603 11.5645C21.9937 11.231 21.9937 10.6791 21.6603 10.3457C21.3268 10.0122 20.7749 10.0122 20.4415 10.3457L19.3319 11.4553Z" fill="white"/>
</g>
</g>
</svg>
