<svg width="38" height="38" viewBox="0 0 38 38" fill="none" xmlns="http://www.w3.org/2000/svg">
<g id="Container">
<g id="Component 1">
<path id="Vector" opacity="0.8" d="M16.52 10C16.7893 9.99998 17.0559 10.0544 17.3036 10.1599C17.5514 10.2654 17.7754 10.4198 17.962 10.614L18.082 10.751L19.48 12.5H27C27.5046 12.4998 27.9906 12.6904 28.3605 13.0335C28.7305 13.3766 28.9572 13.8468 28.995 14.35L29 14.5V26C29.0002 26.5046 28.8096 26.9906 28.4665 27.3605C28.1234 27.7305 27.6532 27.9572 27.15 27.995L27 28H11C10.4954 28.0002 10.0094 27.8096 9.63945 27.4665C9.26947 27.1234 9.04284 26.6532 9.005 26.15L9 26V12C8.99984 11.4954 9.19041 11.0094 9.5335 10.6395C9.87659 10.2695 10.3468 10.0428 10.85 10.005L11 10H16.52ZM27 18H11V26H27V18ZM16.52 12H11V16H27V14.5H19.48C19.2107 14.5 18.9441 14.4456 18.6964 14.3401C18.4486 14.2346 18.2246 14.0802 18.038 13.886L17.918 13.749L16.52 12Z" fill="white"/>
</g>
</g>
</svg>
