<svg width="38" height="38" viewBox="0 0 38 38" fill="none" xmlns="http://www.w3.org/2000/svg">
<g id="Container">
<g id="Component 1">
<path id="Vector" opacity="0.8" d="M18.95 25C19.3 25 19.596 24.879 19.838 24.637C20.08 24.395 20.2007 24.0993 20.2 23.75C20.1993 23.4007 20.0787 23.1047 19.838 22.862C19.5973 22.6193 19.3013 22.4987 18.95 22.5C18.5987 22.5013 18.303 22.6223 18.063 22.863C17.823 23.1037 17.702 23.3993 17.7 23.75C17.698 24.1007 17.819 24.3967 18.063 24.638C18.307 24.8793 18.6027 25 18.95 25ZM19 29C17.6167 29 16.3167 28.7373 15.1 28.212C13.8833 27.6867 12.825 26.9743 11.925 26.075C11.025 25.1757 10.3127 24.1173 9.788 22.9C9.26333 21.6827 9.00067 20.3827 9 19C8.99933 17.6173 9.262 16.3173 9.788 15.1C10.314 13.8827 11.0263 12.8243 11.925 11.925C12.8237 11.0257 13.882 10.3133 15.1 9.788C16.318 9.26267 17.618 9 19 9C20.382 9 21.682 9.26267 22.9 9.788C24.118 10.3133 25.1763 11.0257 26.075 11.925C26.9737 12.8243 27.6863 13.8827 28.213 15.1C28.7397 16.3173 29.002 17.6173 29 19C28.998 20.3827 28.7353 21.6827 28.212 22.9C27.6887 24.1173 26.9763 25.1757 26.075 26.075C25.1737 26.9743 24.1153 27.687 22.9 28.213C21.6847 28.739 20.3847 29.0013 19 29ZM19 27C21.2333 27 23.125 26.225 24.675 24.675C26.225 23.125 27 21.2333 27 19C27 16.7667 26.225 14.875 24.675 13.325C23.125 11.775 21.2333 11 19 11C16.7667 11 14.875 11.775 13.325 13.325C11.775 14.875 11 16.7667 11 19C11 21.2333 11.775 23.125 13.325 24.675C14.875 26.225 16.7667 27 19 27ZM19.1 14.7C19.5167 14.7 19.8793 14.8333 20.188 15.1C20.4967 15.3667 20.6507 15.7 20.65 16.1C20.65 16.4667 20.5377 16.7917 20.313 17.075C20.0883 17.3583 19.834 17.625 19.55 17.875C19.1667 18.2083 18.8293 18.575 18.538 18.975C18.2467 19.375 18.1007 19.825 18.1 20.325C18.1 20.5583 18.1877 20.7543 18.363 20.913C18.5383 21.0717 18.7423 21.1507 18.975 21.15C19.225 21.15 19.4377 21.0667 19.613 20.9C19.7883 20.7333 19.9007 20.525 19.95 20.275C20.0167 19.925 20.1667 19.6127 20.4 19.338C20.6333 19.0633 20.8833 18.8007 21.15 18.55C21.5333 18.1833 21.8627 17.7833 22.138 17.35C22.4133 16.9167 22.5507 16.4333 22.55 15.9C22.55 15.05 22.2043 14.3543 21.513 13.813C20.8217 13.2717 20.0173 13.0007 19.1 13C18.4667 13 17.8627 13.1333 17.288 13.4C16.7133 13.6667 16.2757 14.075 15.975 14.625C15.8583 14.825 15.821 15.0377 15.863 15.263C15.905 15.4883 16.0173 15.659 16.2 15.775C16.4333 15.9083 16.675 15.95 16.925 15.9C17.175 15.85 17.3833 15.7083 17.55 15.475C17.7333 15.225 17.9627 15.0333 18.238 14.9C18.5133 14.7667 18.8007 14.7 19.1 14.7Z" fill="white"/>
</g>
</g>
</svg>
