<svg width="38" height="38" viewBox="0 0 38 38" fill="none" xmlns="http://www.w3.org/2000/svg">
<g id="Container">
<g id="Component 1">
<path id="Vector" opacity="0.8" d="M19 9C24.523 9 29 13.477 29 19C29 24.523 24.523 29 19 29C13.477 29 9 24.523 9 19C9 13.477 13.477 9 19 9ZM19 11C16.8783 11 14.8434 11.8429 13.3431 13.3431C11.8429 14.8434 11 16.8783 11 19C11 21.1217 11.8429 23.1566 13.3431 24.6569C14.8434 26.1571 16.8783 27 19 27C21.1217 27 23.1566 26.1571 24.6569 24.6569C26.1571 23.1566 27 21.1217 27 19C27 16.8783 26.1571 14.8434 24.6569 13.3431C23.1566 11.8429 21.1217 11 19 11ZM14.5 17.5C14.8978 17.5 15.2794 17.658 15.5607 17.9393C15.842 18.2206 16 18.6022 16 19C16 19.3978 15.842 19.7794 15.5607 20.0607C15.2794 20.342 14.8978 20.5 14.5 20.5C14.1022 20.5 13.7206 20.342 13.4393 20.0607C13.158 19.7794 13 19.3978 13 19C13 18.6022 13.158 18.2206 13.4393 17.9393C13.7206 17.658 14.1022 17.5 14.5 17.5ZM19 17.5C19.3978 17.5 19.7794 17.658 20.0607 17.9393C20.342 18.2206 20.5 18.6022 20.5 19C20.5 19.3978 20.342 19.7794 20.0607 20.0607C19.7794 20.342 19.3978 20.5 19 20.5C18.6022 20.5 18.2206 20.342 17.9393 20.0607C17.658 19.7794 17.5 19.3978 17.5 19C17.5 18.6022 17.658 18.2206 17.9393 17.9393C18.2206 17.658 18.6022 17.5 19 17.5ZM23.5 17.5C23.8978 17.5 24.2794 17.658 24.5607 17.9393C24.842 18.2206 25 18.6022 25 19C25 19.3978 24.842 19.7794 24.5607 20.0607C24.2794 20.342 23.8978 20.5 23.5 20.5C23.1022 20.5 22.7206 20.342 22.4393 20.0607C22.158 19.7794 22 19.3978 22 19C22 18.6022 22.158 18.2206 22.4393 17.9393C22.7206 17.658 23.1022 17.5 23.5 17.5Z" fill="white"/>
</g>
</g>
</svg>
