<svg width="12" height="12" viewBox="0 0 12 12" fill="none" xmlns="http://www.w3.org/2000/svg">
  <g id="Vector">
    <path
      d="M10.0459 0.335204C10.4928 -0.111735 11.2175 -0.111735 11.6644 0.335204C12.1113 0.782142 12.1113 1.50677 11.6644 1.95371L1.95365 11.6648C1.50672 12.1117 0.782117 12.1117 0.335193 11.6648C-0.111731 11.2178 -0.111731 10.4932 0.335193 10.0463L10.0459 0.335204Z"
      fill="currentColor" />
    <path
      d="M1.95408 0.335241C1.50716 -0.111697 0.782549 -0.111698 0.335625 0.335241C-0.111298 0.78218 -0.111298 1.50681 0.335625 1.95375L10.0464 11.6648C10.4933 12.1117 11.2179 12.1117 11.6648 11.6648C12.1117 11.2179 12.1117 10.4932 11.6648 10.0463L1.95408 0.335241Z"
      fill="currentColor" />
  </g>
</svg>