<svg width="11" height="11" viewBox="0 0 11 11" fill="none" xmlns="http://www.w3.org/2000/svg">
  <g id="Rectangle 527">
    <path id="Rectangle 527_2"
      d="M7.53245 2.68727V1.99497C7.53245 1.23027 6.91254 0.610352 6.14784 0.610352H1.99399C1.22929 0.610352 0.609375 1.23026 0.609375 1.99497V6.14881C0.609375 6.91352 1.22929 7.53343 1.99399 7.53343H2.6863M7.53245 2.68727H4.32266C3.41892 2.68727 2.6863 3.4199 2.6863 4.32364V7.53343M7.53245 2.68727H7.97301C8.87675 2.68727 9.60938 3.4199 9.60938 4.32364V7.97399C9.60938 8.87773 8.87675 9.61035 7.97301 9.61035H4.32266C3.41892 9.61035 2.6863 8.87773 2.6863 7.97399V7.53343"
      stroke="currentColor" stroke-width="1.22" />
  </g>
</svg>