<svg width="14" height="14" viewBox="0 0 14 14" fill="none" xmlns="http://www.w3.org/2000/svg">
<g id="Rectangle 527">
<path id="Rectangle 527_2" d="M10.0442 3.58173V2.65865C10.0442 1.63905 9.21769 0.8125 8.19809 0.8125H2.65963C1.64003 0.8125 0.813477 1.63905 0.813477 2.65865V8.19712C0.813477 9.21672 1.64003 10.0433 2.65963 10.0433H3.58271M10.0442 3.58173H5.76453C4.55954 3.58173 3.58271 4.55857 3.58271 5.76355V10.0433M10.0442 3.58173H10.6317C11.8366 3.58173 12.8135 4.55856 12.8135 5.76355V10.6307C12.8135 11.8357 11.8366 12.8125 10.6317 12.8125H5.76452C4.55954 12.8125 3.58271 11.8357 3.58271 10.6307V10.0433" stroke="url(#paint0_linear_359_7369)" stroke-width="1.62667"/>
</g>
<defs>
<linearGradient id="paint0_linear_359_7369" x1="0.813476" y1="12.8125" x2="15.1456" y2="5.20785" gradientUnits="userSpaceOnUse">
<stop stop-color="#2600FC"/>
<stop offset="1" stop-color="#FF00EA"/>
</linearGradient>
</defs>
</svg>
