<?xml version="1.0" encoding="UTF-8"?>
<svg xmlns="http://www.w3.org/2000/svg" xmlns:xlink="http://www.w3.org/1999/xlink" width="3750" height="3750"
  viewBox="0 0 3750 3750">
  <path fill-rule="nonzero" fill="#F44336" fill-opacity="1"
    d="M 1881.480469 74.328125 C 1881.390625 74.328125 1881.300781 74.328125 1881.21875 74.328125 C 1750.109375 74.46875 1643.929688 180.871094 1644.070312 311.980469 L 1645.570312 1715.648438 C 1645.710938 1846.679688 1751.96875 1952.800781 1882.96875 1952.800781 C 1883.050781 1952.800781 1883.140625 1952.800781 1883.21875 1952.800781 C 2014.339844 1952.660156 2120.511719 1846.25 2120.371094 1715.140625 L 2118.871094 311.46875 C 2118.730469 180.449219 2012.46875 74.328125 1881.480469 74.328125 Z M 1153.960938 720.488281 C 1105.128906 720.488281 1055.878906 735.53125 1013.558594 766.730469 L 922.054688 834.210938 C 916.511719 838.289062 911.152344 842.609375 905.988281 847.171875 L 820.699219 922.351562 C 815.535156 926.898438 810.574219 931.679688 805.828125 936.660156 L 727.40625 1018.980469 C 722.65625 1023.96875 718.128906 1029.160156 713.832031 1034.539062 L 642.875 1123.371094 C 638.578125 1128.75 634.519531 1134.308594 630.707031 1140.039062 L 567.753906 1234.71875 C 563.941406 1240.449219 560.382812 1246.339844 557.085938 1252.390625 L 502.609375 1352.179688 C 499.308594 1358.230469 496.277344 1364.410156 493.515625 1370.710938 L 447.933594 1474.871094 C 445.175781 1481.179688 442.691406 1487.601562 440.492188 1494.121094 L 404.148438 1601.859375 C 401.949219 1608.378906 400.035156 1614.988281 398.410156 1621.679688 L 371.582031 1732.171875 C 369.957031 1738.859375 368.625 1745.609375 367.589844 1752.421875 L 350.484375 1864.820312 C 349.445312 1871.621094 348.707031 1878.46875 348.269531 1885.339844 L 341.011719 1998.808594 C 340.570312 2005.679688 340.429688 2012.558594 340.589844 2019.441406 L 343.234375 2133.109375 C 343.394531 2139.988281 343.855469 2146.859375 344.613281 2153.699219 L 357.144531 2266.699219 C 357.902344 2273.550781 358.957031 2280.351562 360.308594 2287.101562 L 382.625 2398.589844 C 383.976562 2405.339844 385.621094 2412.019531 387.554688 2418.628906 L 419.492188 2527.75 C 421.425781 2534.351562 423.648438 2540.871094 426.148438 2547.28125 L 467.460938 2653.210938 C 469.964844 2659.621094 472.742188 2665.921875 475.792969 2672.089844 L 526.171875 2774.019531 C 529.222656 2780.191406 532.539062 2786.222656 536.113281 2792.105469 L 595.171875 2889.261719 C 598.746094 2895.140625 602.578125 2900.867188 606.652344 2906.414062 L 673.941406 2998.058594 C 678.015625 3003.605469 682.332031 3008.976562 686.871094 3014.148438 L 761.886719 3099.585938 C 766.425781 3104.761719 771.191406 3109.730469 776.164062 3114.488281 L 858.332031 3193.074219 C 863.304688 3197.832031 868.484375 3202.371094 873.855469 3206.679688 L 962.546875 3277.8125 C 967.917969 3282.121094 973.472656 3286.191406 979.195312 3290.015625 L 1073.75 3353.160156 C 1079.46875 3356.980469 1085.359375 3360.554688 1091.390625 3363.863281 L 1191.078125 3418.539062 C 1197.121094 3421.847656 1203.289062 3424.894531 1209.589844 3427.667969 L 1313.660156 3473.457031 C 1319.960938 3476.230469 1326.378906 3478.726562 1332.890625 3480.9375 L 1440.558594 3517.496094 C 1447.070312 3519.710938 1453.679688 3521.636719 1460.371094 3523.277344 L 1570.800781 3550.324219 C 1577.488281 3551.960938 1584.238281 3553.308594 1591.039062 3554.355469 L 1703.410156 3571.6875 C 1710.21875 3572.738281 1717.058594 3573.492188 1723.929688 3573.945312 L 1837.378906 3581.429688 C 1842.570312 3581.773438 1847.769531 3581.945312 1852.980469 3581.945312 C 1854.71875 3581.945312 1856.460938 3581.925781 1858.191406 3581.886719 L 1973.871094 3579.339844 C 1980.871094 3579.183594 1987.871094 3578.71875 1994.828125 3577.945312 L 2109.820312 3565.160156 C 2116.78125 3564.386719 2123.710938 3563.304688 2130.570312 3561.914062 L 2243.980469 3538.996094 C 2250.851562 3537.605469 2257.648438 3535.914062 2264.371094 3533.925781 L 2375.300781 3501.046875 C 2382.019531 3499.058594 2388.640625 3496.769531 2395.148438 3494.191406 L 2502.738281 3451.621094 C 2509.25 3449.042969 2515.648438 3446.175781 2521.910156 3443.03125 L 2625.300781 3391.097656 C 2631.558594 3387.953125 2637.679688 3384.53125 2643.628906 3380.847656 L 2742.019531 3319.957031 C 2747.96875 3316.269531 2753.761719 3312.320312 2759.371094 3308.121094 L 2851.96875 3238.757812 C 2857.578125 3234.558594 2863 3230.109375 2868.210938 3225.429688 L 2954.308594 3148.136719 C 2959.519531 3143.457031 2964.519531 3138.546875 2969.300781 3133.425781 L 3048.210938 3048.808594 C 3052.980469 3043.683594 3057.539062 3038.351562 3061.839844 3032.828125 L 3132.949219 2941.550781 C 3137.25 2936.027344 3141.308594 2930.3125 3145.109375 2924.425781 L 3207.851562 2827.210938 C 3211.640625 2821.328125 3215.179688 2815.273438 3218.441406 2809.078125 L 3272.320312 2706.691406 C 3275.589844 2700.488281 3278.570312 2694.148438 3281.269531 2687.679688 L 3325.878906 2580.921875 C 3328.578125 2574.460938 3330.988281 2567.878906 3333.109375 2561.199219 L 3368.078125 2450.910156 C 3370.191406 2444.230469 3372.011719 2437.46875 3373.53125 2430.628906 L 3398.589844 2317.671875 C 3400.109375 2310.839844 3401.320312 2303.929688 3402.230469 2296.980469 L 3417.191406 2182.25 C 3418.101562 2175.308594 3418.691406 2168.320312 3418.980469 2161.328125 L 3423.71875 2045.71875 C 3424 2038.71875 3423.980469 2031.710938 3423.648438 2024.71875 L 3418.128906 1909.140625 C 3417.789062 1902.148438 3417.148438 1895.171875 3416.191406 1888.230469 L 3400.460938 1773.609375 C 3399.511719 1766.660156 3398.25 1759.769531 3396.679688 1752.941406 L 3370.859375 1640.160156 C 3369.289062 1633.328125 3367.429688 1626.570312 3365.269531 1619.910156 L 3329.550781 1509.859375 C 3327.390625 1503.199219 3324.929688 1496.628906 3322.191406 1490.191406 L 3276.859375 1383.730469 C 3274.121094 1377.289062 3271.089844 1370.96875 3267.789062 1364.789062 L 3213.210938 1262.769531 C 3209.910156 1256.589844 3206.328125 1250.570312 3202.488281 1244.710938 L 3139.089844 1147.921875 C 3135.25 1142.058594 3131.160156 1136.371094 3126.820312 1130.871094 L 3055.089844 1040.078125 C 3050.75 1034.589844 3046.171875 1029.289062 3041.359375 1024.191406 L 2961.878906 940.109375 C 2957.058594 935.019531 2952.03125 930.148438 2946.789062 925.5 L 2860.171875 848.789062 C 2854.921875 844.148438 2849.480469 839.738281 2843.839844 835.578125 L 2750.769531 766.839844 C 2708.429688 735.570312 2659.109375 720.488281 2610.230469 720.488281 C 2537.609375 720.488281 2465.941406 753.769531 2419.480469 816.660156 C 2341.761719 921.910156 2364.070312 1070.230469 2469.308594 1147.949219 L 2553.921875 1210.441406 L 2624.800781 1273.210938 L 2689.839844 1342.019531 L 2748.53125 1416.308594 L 2800.410156 1495.511719 L 2845.070312 1579 L 2882.148438 1666.109375 L 2911.378906 1756.160156 L 2932.511719 1848.449219 L 2945.390625 1942.25 L 2949.910156 2036.820312 L 2946.03125 2131.421875 L 2933.789062 2225.300781 L 2913.28125 2317.730469 L 2884.660156 2407.988281 L 2848.171875 2495.351562 L 2804.070312 2579.128906 L 2752.730469 2658.679688 L 2694.550781 2733.371094 L 2629.980469 2802.613281 L 2559.519531 2865.863281 L 2483.75 2922.625 L 2403.238281 2972.449219 L 2318.628906 3014.949219 L 2230.601562 3049.785156 L 2139.820312 3076.6875 L 2047.019531 3095.445312 L 1952.921875 3105.90625 L 1858.171875 3107.996094 L 1765.429688 3101.875 L 1673.480469 3087.691406 L 1583.109375 3065.558594 L 1495.019531 3035.640625 L 1409.859375 2998.171875 L 1328.289062 2953.429688 L 1250.910156 2901.757812 L 1250.910156 2901.761719 L 1178.339844 2843.550781 L 1111.101562 2779.242188 L 1049.71875 2709.328125 L 994.652344 2634.339844 L 946.324219 2554.828125 L 905.101562 2471.429688 L 871.292969 2384.75 L 845.160156 2295.460938 L 826.898438 2204.230469 L 816.644531 2111.761719 L 814.480469 2018.75 L 820.421875 1925.898438 L 834.421875 1833.921875 L 856.375 1743.511719 L 886.113281 1655.351562 L 923.414062 1570.121094 L 967.988281 1488.460938 L 1019.511719 1410.980469 L 1077.570312 1338.289062 L 1141.738281 1270.929688 L 1211.539062 1209.398438 L 1294.730469 1148.058594 C 1400.03125 1070.410156 1422.449219 922.109375 1344.808594 816.808594 C 1298.371094 753.820312 1226.640625 720.488281 1153.960938 720.488281 Z M 1153.960938 720.488281 " />
</svg>