<svg width="13" height="13" viewBox="0 0 13 13" fill="none" xmlns="http://www.w3.org/2000/svg">
  <g id="Component 30">
    <path id="Vector"
      d="M6.11133 11.6113C9.14889 11.6113 11.6113 9.14889 11.6113 6.11133C11.6113 3.07376 9.14889 0.611328 6.11133 0.611328C3.07376 0.611328 0.611328 3.07376 0.611328 6.11133C0.611328 9.14889 3.07376 11.6113 6.11133 11.6113Z"
      stroke="currentColor" stroke-width="1.22222" stroke-linecap="round" stroke-linejoin="round" />
    <path id="Vector_2"
      d="M4.88867 4.88922C4.88867 4.64748 4.96035 4.41118 5.09465 4.21018C5.22895 4.00919 5.41984 3.85254 5.64317 3.76003C5.8665 3.66752 6.11225 3.64332 6.34934 3.69048C6.58643 3.73764 6.8042 3.85404 6.97514 4.02497C7.14607 4.1959 7.26247 4.41368 7.30963 4.65077C7.35679 4.88786 7.33259 5.13361 7.24008 5.35694C7.14757 5.58027 6.99092 5.77116 6.78992 5.90546C6.58893 6.03976 6.35263 6.11144 6.11089 6.11144V6.72255M6.11089 8.55588H6.11701"
      stroke="currentColor" stroke-width="1.22222" stroke-linecap="round" stroke-linejoin="round" />
  </g>
</svg>