<svg width="32" height="32" viewBox="0 0 32 32" fill="none" xmlns="http://www.w3.org/2000/svg">
<g id="Container" opacity="0.2">
<g id="Component 1">
<path id="Vector" fill-rule="evenodd" clip-rule="evenodd" d="M16.0003 7.57812C20.6513 7.57812 24.4214 11.3482 24.4214 15.9992C24.4214 20.6501 20.6513 24.4202 16.0003 24.4202C11.3494 24.4202 7.57928 20.6501 7.57928 15.9992C7.57928 11.3482 11.3494 7.57812 16.0003 7.57812ZM17.2483 20.1592C16.4178 20.2278 15.5829 20.2278 14.7523 20.1592C14.8309 20.4938 14.918 20.8031 15.0134 21.0872C15.2248 21.723 15.4597 22.176 15.6787 22.4531C15.7856 22.5895 15.8723 22.6619 15.9313 22.6973L15.9742 22.7209L15.9995 22.7276L16.0264 22.7209L16.0694 22.6981C16.1672 22.6321 16.2527 22.5494 16.322 22.4539C16.541 22.176 16.7759 21.723 16.9873 21.0872C17.0827 20.8031 17.1697 20.4938 17.2483 20.1592ZM9.94307 18.9508C10.7081 20.5161 12.0478 21.7258 13.6829 22.3276C13.584 22.0956 13.4947 21.8596 13.4151 21.6202C13.2318 21.0598 13.0855 20.4879 12.9772 19.9082C11.935 19.6964 10.9181 19.3755 9.94307 18.9508ZM22.0584 18.9508C21.0942 19.3718 20.0787 19.6943 19.0227 19.9082C18.9143 20.4881 18.7681 21.0603 18.5848 21.6211C18.5039 21.8664 18.4147 22.1016 18.317 22.3268C19.9527 21.7253 21.293 20.5156 22.0584 18.9499V18.9508ZM17.6643 15.0484C16.5599 15.1952 15.4408 15.1952 14.3363 15.0484C14.2882 16.1796 14.3279 17.3129 14.4551 18.4379C15.4819 18.555 16.5188 18.555 17.5456 18.4379C17.6391 17.6284 17.6855 16.8141 17.6845 15.9992C17.6845 15.6758 17.6778 15.3586 17.6643 15.0476V15.0484ZM9.74181 13.4998C9.33084 14.5297 9.18043 15.645 9.30392 16.747C10.3769 17.3614 11.5293 17.8253 12.7288 18.1255C12.6256 16.9908 12.6047 15.8501 12.6664 14.7124C11.6446 14.4325 10.662 14.0251 9.74181 13.4998ZM22.2589 13.4998C21.3387 14.0251 20.3561 14.4325 19.3342 14.7124C19.3959 15.8501 19.3751 16.9908 19.2719 18.1255C20.4711 17.8252 21.6232 17.3614 22.6959 16.747C22.8193 15.6453 22.6689 14.5302 22.258 13.5007L22.2589 13.4998ZM16.0138 9.27244L16.0045 9.27076L15.9877 9.27328L15.9557 9.28591C15.8476 9.35376 15.7533 9.44149 15.6778 9.54444C15.4589 9.82234 15.2248 10.2754 15.0125 10.9103C14.7852 11.5908 14.6016 12.4261 14.4795 13.3684C15.4885 13.51 16.5122 13.51 17.5212 13.3684C17.3991 12.4253 17.2147 11.5908 16.9881 10.9103C16.7759 10.2754 16.5418 9.82149 16.3229 9.54444C16.2536 9.44891 16.1681 9.36626 16.0702 9.30023L16.0138 9.27244ZM13.6829 9.6716C12.4314 10.1304 11.3441 10.9501 10.5587 12.027C11.2685 12.4345 12.029 12.7647 12.8281 13.0063C12.9629 12.0261 13.1624 11.1343 13.4151 10.3773C13.4965 10.1314 13.5857 9.89616 13.6829 9.6716ZM18.3178 9.6716C18.4144 9.89616 18.5036 10.1314 18.5856 10.3773C18.8382 11.1352 19.0378 12.0261 19.1725 13.0063C19.9636 12.7666 20.7249 12.4381 21.442 12.027C20.6566 10.9501 19.5693 10.1304 18.3178 9.6716Z" fill="white"/>
</g>
</g>
</svg>
