<svg width="33" height="33" viewBox="0 0 33 33" fill="none" xmlns="http://www.w3.org/2000/svg">
  <g id="ic:round-menu">
    <path id="Vector"
      d="M5.5 24.75H27.5C28.2563 24.75 28.875 24.1313 28.875 23.375C28.875 22.6187 28.2563 22 27.5 22H5.5C4.74375 22 4.125 22.6187 4.125 23.375C4.125 24.1313 4.74375 24.75 5.5 24.75ZM5.5 17.875H27.5C28.2563 17.875 28.875 17.2563 28.875 16.5C28.875 15.7438 28.2563 15.125 27.5 15.125H5.5C4.74375 15.125 4.125 15.7438 4.125 16.5C4.125 17.2563 4.74375 17.875 5.5 17.875ZM4.125 9.625C4.125 10.3812 4.74375 11 5.5 11H27.5C28.2563 11 28.875 10.3812 28.875 9.625C28.875 8.86875 28.2563 8.25 27.5 8.25H5.5C4.74375 8.25 4.125 8.86875 4.125 9.625Z"
      fill="currentColor" />
  </g>
</svg>