<svg width="22" height="23" viewBox="0 0 22 23" fill="none" xmlns="http://www.w3.org/2000/svg">
  <g id="Group 32">
    <path id="Rectangle 18" opacity="0.5"
      d="M5.5 11.5004C5.50015 11.7432 5.586 11.978 5.74127 12.1594C5.89662 12.3409 6.11065 12.4567 6.34272 12.4849L6.4533 12.4918L13.2456 12.4918L11.5029 14.3042C11.3301 14.4822 11.2293 14.7221 11.2211 14.9749C11.2128 15.2277 11.2978 15.4742 11.4586 15.664C11.6194 15.8538 11.8438 15.9725 12.086 15.9958C12.3282 16.0191 12.5697 15.9452 12.7613 15.7894L12.8509 15.7061L16.2208 12.2013C16.385 12.0306 16.4836 11.8035 16.4981 11.5625C16.5127 11.3216 16.4422 11.0834 16.2999 10.8926L16.2208 10.7994L12.8509 7.29372C12.6797 7.11402 12.449 7.00915 12.2059 7.00057C11.9629 6.99199 11.7258 7.08036 11.5434 7.24759C11.3609 7.41481 11.2468 7.64825 11.2244 7.90011C11.202 8.15197 11.273 8.40322 11.4228 8.60242L11.5029 8.69562L13.2456 10.51L6.4533 10.51C6.20047 10.51 5.95799 10.6144 5.77921 10.8003C5.60057 10.9861 5.50015 11.2377 5.5 11.5004Z"
      fill="currentColor" />
  </g>
</svg>