<svg xmlns="http://www.w3.org/2000/svg" xmlns:xlink="http://www.w3.org/1999/xlink" fill="none" version="1.1" width="14" height="14" viewBox="0 0 14 14"><g><g><path d="M10.5,7C10.5,7.48324,10.89178,7.875,11.375,7.875C11.8582,7.875,12.25,7.48324,12.25,7C12.25,6.516758,11.8582,6.125,11.375,6.125C10.89178,6.125,10.5,6.516758,10.5,7ZM2.625,7.875C2.141785,7.875,1.75,7.48324,1.75,7C1.75,6.516758,2.141785,6.125,2.625,6.125C3.10822,6.125,3.5,6.516758,3.5,7C3.5,7.48324,3.10822,7.875,2.625,7.875ZM6.125,7C6.125,7.48324,6.51678,7.875,7,7.875C7.48322,7.875,7.875,7.48324,7.875,7C7.875,6.516758,7.48322,6.125,7,6.125C6.51678,6.125,6.125,6.516758,6.125,7Z" fill="#333333" fill-opacity="1"/></g></g></svg>