<svg width="22" height="23" viewBox="0 0 22 23" fill="none" xmlns="http://www.w3.org/2000/svg">
  <g id="Group 31">
    <path id="Rectangle 18"
      d="M16.5 11.5004C16.4998 11.7432 16.414 11.978 16.2587 12.1594C16.1034 12.3409 15.8893 12.4567 15.6573 12.4849L15.5467 12.4918L8.75444 12.4918L10.4971 14.3042C10.6699 14.4822 10.7707 14.7221 10.7789 14.9749C10.7872 15.2277 10.7022 15.4742 10.5414 15.664C10.3806 15.8538 10.1562 15.9725 9.91401 15.9958C9.67184 16.0191 9.43025 15.9452 9.23872 15.7894L9.14911 15.7061L5.77918 12.2013C5.61505 12.0306 5.51645 11.8035 5.50188 11.5625C5.48731 11.3216 5.55778 11.0834 5.70006 10.8926L5.77918 10.7994L9.14911 7.29372C9.32026 7.11402 9.55099 7.00915 9.79406 7.00057C10.0371 6.99199 10.2742 7.08036 10.4566 7.24759C10.6391 7.41481 10.7532 7.64825 10.7756 7.90011C10.798 8.15197 10.727 8.40322 10.5772 8.60242L10.4971 8.69562L8.75444 10.51L15.5467 10.51C15.7995 10.51 16.042 10.6144 16.2208 10.8003C16.3994 10.9861 16.4998 11.2377 16.5 11.5004Z"
      fill="currentColor" />
  </g>
</svg>