<svg width="24" height="24" viewBox="0 0 24 24" fill="none" xmlns="http://www.w3.org/2000/svg">
<g id="Container">
<g id="Component 1">
<path id="Vector" d="M19.4309 12.98C19.4709 12.66 19.5009 12.34 19.5009 12C19.5009 11.66 19.4709 11.34 19.4309 11.02L21.5409 9.37C21.7309 9.22 21.7809 8.95 21.6609 8.73L19.6609 5.27C19.5409 5.05 19.2709 4.97 19.0509 5.05L16.5609 6.05C16.0409 5.65 15.4809 5.32 14.8709 5.07L14.4909 2.42C14.4609 2.18 14.2509 2 14.0009 2H10.0008C9.75082 2 9.54082 2.18 9.51082 2.42L9.13082 5.07C8.52082 5.32 7.96082 5.66 7.44082 6.05L4.95082 5.05C4.72082 4.96 4.46082 5.05 4.34082 5.27L2.34082 8.73C2.21082 8.95 2.27082 9.22 2.46082 9.37L4.57082 11.02C4.53082 11.34 4.50082 11.67 4.50082 12C4.50082 12.33 4.53082 12.66 4.57082 12.98L2.46082 14.63C2.27082 14.78 2.22082 15.05 2.34082 15.27L4.34082 18.73C4.46082 18.95 4.73082 19.03 4.95082 18.95L7.44082 17.95C7.96082 18.35 8.52082 18.68 9.13082 18.93L9.51082 21.58C9.54082 21.82 9.75082 22 10.0008 22H14.0009C14.2509 22 14.4609 21.82 14.4909 21.58L14.8709 18.93C15.4809 18.68 16.0409 18.34 16.5609 17.95L19.0509 18.95C19.2809 19.04 19.5409 18.95 19.6609 18.73L21.6609 15.27C21.7809 15.05 21.7309 14.78 21.5409 14.63L19.4309 12.98ZM12.0009 15.5C10.0709 15.5 8.50082 13.93 8.50082 12C8.50082 10.07 10.0709 8.5 12.0009 8.5C13.9309 8.5 15.5009 10.07 15.5009 12C15.5009 13.93 13.9309 15.5 12.0009 15.5Z" fill="url(#paint0_linear_291_9836)"/>
</g>
</g>
<defs>
<linearGradient id="paint0_linear_291_9836" x1="2.27148" y1="22" x2="25.7847" y2="9.86431" gradientUnits="userSpaceOnUse">
<stop stop-color="#2600FC"/>
<stop offset="1" stop-color="#FF00EA"/>
</linearGradient>
</defs>
</svg>
