<svg width="39" height="39" viewBox="0 0 39 39" fill="none" xmlns="http://www.w3.org/2000/svg">
  <g id="Group 7">
    <circle id="Ellipse 30" cx="19.5" cy="19.5" r="19" fill="white" stroke="#D2E3F1" />
    <g id="Component 1">
      <path id="Vector"
        d="M24.3337 25.4274V18.9165C24.3337 18.3207 23.8462 17.8332 23.2504 17.8332C22.6546 17.8332 22.1671 18.3207 22.1671 18.9165V25.4274H20.2279C19.7404 25.4274 19.5021 26.0124 19.8487 26.3482L22.8712 29.3598C23.0879 29.5657 23.4237 29.5657 23.6404 29.3598L26.6629 26.3482C27.0096 26.0124 26.7604 25.4274 26.2837 25.4274H24.3337ZM16.3712 10.629L13.3487 13.6515C13.0021 13.9873 13.2404 14.5723 13.7279 14.5723H15.6671V21.0832C15.6671 21.679 16.1546 22.1665 16.7504 22.1665C17.3462 22.1665 17.8337 21.679 17.8337 21.0832V14.5723H19.7729C20.2604 14.5723 20.4987 13.9873 20.1521 13.6515L17.1296 10.629C17.0282 10.53 16.8921 10.4746 16.7504 10.4746C16.6087 10.4746 16.4726 10.53 16.3712 10.629Z"
        fill="#4CC9F0" />
    </g>
  </g>
</svg>