<svg width="20" height="20" viewBox="0 0 20 20" fill="none" xmlns="http://www.w3.org/2000/svg">
  <g id="Component 1">
    <path id="Vector"
      d="M4.55924 17.1688C4.08036 17.1688 3.67243 17.0003 3.33549 16.6635C2.99854 16.3265 2.83008 15.9186 2.83008 15.4397V4.55924C2.83008 4.08036 2.99854 3.67244 3.33549 3.3355C3.67243 2.99856 4.08036 2.83008 4.55924 2.83008H15.4396C15.9185 2.83008 16.3265 2.99856 16.6634 3.3355C17.0004 3.67244 17.1688 4.08036 17.1688 4.55924H10.5095C9.69598 4.55924 9.00091 4.84758 8.42424 5.42425C7.84758 6.00091 7.55925 6.69599 7.55925 7.50946V12.4995C7.55925 13.3129 7.84758 14.0063 8.42424 14.5797C9.00091 15.153 9.69598 15.4397 10.5095 15.4397H17.1688C17.1688 15.9227 17.0004 16.3317 16.6634 16.6666C16.3265 17.0015 15.9185 17.1688 15.4396 17.1688H4.55924ZM10.5095 13.9995C10.1003 13.9995 9.74632 13.8518 9.44758 13.5563C9.14882 13.2609 8.99946 12.9087 8.99946 12.4995V7.50946C8.99946 7.10029 9.14882 6.74633 9.44758 6.44758C9.74632 6.14883 10.1003 5.99946 10.5095 5.99946H16.6588C17.068 5.99946 17.422 6.14883 17.7207 6.44758C18.0194 6.74633 18.1688 7.10029 18.1688 7.50946V12.4995C18.1688 12.9087 18.0194 13.2609 17.7207 13.5563C17.422 13.8518 17.068 13.9995 16.6588 13.9995H10.5095ZM13.4994 11.2495C13.8466 11.2495 14.1418 11.1279 14.3848 10.8849C14.628 10.6418 14.7494 10.3467 14.7494 9.99946C14.7494 9.65223 14.628 9.3571 14.3848 9.11405C14.1418 8.87099 13.8466 8.74946 13.4994 8.74946C13.1522 8.74946 12.8571 8.87099 12.6141 9.11405C12.371 9.3571 12.2494 9.65223 12.2494 9.99946C12.2494 10.3467 12.371 10.6418 12.6141 10.8849C12.8571 11.1279 13.1522 11.2495 13.4994 11.2495Z"
      fill="currentColor" />
  </g>
</svg>