<svg width="14" height="15" viewBox="0 0 14 15" fill="none" xmlns="http://www.w3.org/2000/svg">
  <g id="Component 2">
    <path id="Vector"
      d="M9.625 8.66667H9.63083M1.75 3.41667V11.5833C1.75 12.2277 2.27233 12.75 2.91667 12.75H11.0833C11.7277 12.75 12.25 12.2277 12.25 11.5833V5.75C12.25 5.10567 11.7277 4.58333 11.0833 4.58333H2.91667C2.27233 4.58333 1.75 4.061 1.75 3.41667ZM1.75 3.41667C1.75 2.77233 2.27233 2.25 2.91667 2.25H9.91667M9.91667 8.66667C9.91667 8.82775 9.78608 8.95833 9.625 8.95833C9.46392 8.95833 9.33333 8.82775 9.33333 8.66667C9.33333 8.50558 9.46392 8.375 9.625 8.375C9.78608 8.375 9.91667 8.50558 9.91667 8.66667Z"
      stroke="currentColor" stroke-width="1.2" stroke-linecap="round" stroke-linejoin="round" />
  </g>
</svg>